<?xml version="1.0" encoding="UTF-8"?>
<!DOCTYPE svg PUBLIC "-//W3C//DTD SVG 1.1//EN" "http://www.w3.org/Graphics/SVG/1.1/DTD/svg11.dtd">
<svg version="1.2" xmlns="http://www.w3.org/2000/svg" xmlns:xlink="http://www.w3.org/1999/xlink" x="0" y="0" width="2041" height="1167" viewBox="0 0 2041 1167">
<style type="text/css"><![CDATA[
text { font:12px Dialog; }
]]></style>
<rect x="-485" y="-485" width="3011" height="2137" style="fill:rgb(255,255,255);stroke:none" />
<clipPath id="clip1"><path d="M15,15 L2026,15 L2026,1152 L15,1152 Z M800,608 C795.5820313,608 792,611.5820313 792,616 L792,670 C792,674.4179688 795.5820313,678 800,678 L1221,678 C1225.4179688,678 1229,674.4179688 1229,670 L1229,616 C1229,611.5820313 1225.4179688,608 1221,608 Z M800,608 Z M800,608" /></clipPath>
<path d="M1050.40625,608 C1094.5390625,491.8789063 1160.734375,433.8203125 1249,433.8203125" style="fill:none;stroke:rgb(85,142,213)" clip-path="url(#clip1)" />
<clipPath id="clip2"><path d="M15,15 L2026,15 L2026,1152 L15,1152 Z M800,608 C795.5820313,608 792,611.5820313 792,616 L792,670 C792,674.4179688 795.5820313,678 800,678 L1221,678 C1225.4179688,678 1229,674.4179688 1229,670 L1229,616 C1229,611.5820313 1225.4179688,608 1221,608 Z M800,608 Z M800,608" /></clipPath>
<path d="M1045.2773438,678 C1090.5507813,814.6835938 1158.4570313,883.0234375 1249,883.0234375" style="fill:none;stroke:rgb(85,142,213)" clip-path="url(#clip2)" />
<clipPath id="clip3"><path d="M15,15 L2026,15 L2026,1152 L15,1152 Z M800,608 C795.5820313,608 792,611.5820313 792,616 L792,670 C792,674.4179688 795.5820313,678 800,678 L1221,678 C1225.4179688,678 1229,674.4179688 1229,670 L1229,616 C1229,611.5820313 1225.4179688,608 1221,608 Z M800,608 Z M800,608" /></clipPath>
<path d="M985.4648438,608 C941.5820313,423.9726563 875.7617188,331.9609375 788,331.9609375" style="fill:none;stroke:rgb(85,142,213)" clip-path="url(#clip3)" />
<clipPath id="clip4"><path d="M15,15 L2026,15 L2026,1152 L15,1152 Z M800,608 C795.5820313,608 792,611.5820313 792,616 L792,670 C792,674.4179688 795.5820313,678 800,678 L1221,678 C1225.4179688,678 1229,674.4179688 1229,670 L1229,616 C1229,611.5820313 1225.4179688,608 1221,608 Z M800,608 Z M800,608" /></clipPath>
<path d="M981.8515625,678 C938.7734375,835.8945313 874.15625,914.8398438 788,914.8398438" style="fill:none;stroke:rgb(85,142,213)" clip-path="url(#clip4)" />
<clipPath id="clip5"><path d="M788,604 L1234,604 L1234,683 L788,683 L788,604 Z" /></clipPath>
<path d="M800,608 C795.5820313,608 792,611.5820313 792,616 L792,670 C792,674.4179688 795.5820313,678 800,678 L1221,678 C1225.4179688,678 1229,674.4179688 1229,670 L1229,616 C1229,611.5820313 1225.4179688,608 1221,608 Z M800,608" style="fill:rgb(220,230,242);stroke:none" clip-path="url(#clip5)" />
<clipPath id="clip6"><path d="M788,604 L1234,604 L1234,683 L788,683 L788,604 Z" /></clipPath>
<path d="M800,608 C795.5820313,608 792,611.5820313 792,616 L792,670 C792,674.4179688 795.5820313,678 800,678 L1221,678 C1225.4179688,678 1229,674.4179688 1229,670 L1229,616 C1229,611.5820313 1225.4179688,608 1221,608 Z M800,608" style="fill:none;stroke:rgb(85,142,213);stroke-width:5" clip-path="url(#clip6)" />
<text x="827" y="647" style="font:18px Open Sans">UD 8: L'època dels Reis Catòlics</text>
<clipPath id="clip7"><path d="M1248,289 L1992,289 L1992,552 L1248,552 Z M1254,412 C1251.2382813,412 1249,414.2382813 1249,417 L1249,450 C1249,452.7617188 1251.2382813,455 1254,455 L1372,455 C1374.7617188,455 1377,452.7617188 1377,450 L1377,417 C1377,414.2382813 1374.7617188,412 1372,412 Z M1254,412 Z M1254,412" /></clipPath>
<path d="M1390,433.8867188 C1392.2226563,357.296875 1395.5546875,319 1400,319" style="fill:none;stroke:rgb(85,142,213)" clip-path="url(#clip7)" />
<clipPath id="clip8"><path d="M1248,289 L1992,289 L1992,552 L1248,552 Z M1254,412 C1251.2382813,412 1249,414.2382813 1249,417 L1249,450 C1249,452.7617188 1251.2382813,455 1254,455 L1372,455 C1374.7617188,455 1377,452.7617188 1377,450 L1377,417 C1377,414.2382813 1374.7617188,412 1372,412 Z M1254,412 Z M1254,412" /></clipPath>
<path d="M1390,433.8867188 C1392.2226563,379.296875 1395.5546875,352 1400,352" style="fill:none;stroke:rgb(85,142,213)" clip-path="url(#clip8)" />
<clipPath id="clip9"><path d="M1248,289 L1992,289 L1992,552 L1248,552 Z M1254,412 C1251.2382813,412 1249,414.2382813 1249,417 L1249,450 C1249,452.7617188 1251.2382813,455 1254,455 L1372,455 C1374.7617188,455 1377,452.7617188 1377,450 L1377,417 C1377,414.2382813 1374.7617188,412 1372,412 Z M1254,412 Z M1254,412" /></clipPath>
<path d="M1390,433.8867188 C1392.2226563,411.9609375 1395.5546875,401 1400,401" style="fill:none;stroke:rgb(85,142,213)" clip-path="url(#clip9)" />
<clipPath id="clip10"><path d="M1248,289 L1992,289 L1992,552 L1248,552 Z M1254,412 C1251.2382813,412 1249,414.2382813 1249,417 L1249,450 C1249,452.7617188 1251.2382813,455 1254,455 L1372,455 C1374.7617188,455 1377,452.7617188 1377,450 L1377,417 C1377,414.2382813 1374.7617188,412 1372,412 Z M1254,412 Z M1254,412" /></clipPath>
<path d="M1390,433.8867188 C1392.2226563,467.296875 1395.5546875,484 1400,484" style="fill:none;stroke:rgb(85,142,213)" clip-path="url(#clip10)" />
<clipPath id="clip11"><path d="M1248,289 L1992,289 L1992,552 L1248,552 Z M1254,412 C1251.2382813,412 1249,414.2382813 1249,417 L1249,450 C1249,452.7617188 1251.2382813,455 1254,455 L1372,455 C1374.7617188,455 1377,452.7617188 1377,450 L1377,417 C1377,414.2382813 1374.7617188,412 1372,412 Z M1254,412 Z M1254,412" /></clipPath>
<path d="M1390,433.8867188 C1392.2226563,511.296875 1395.5546875,550 1400,550" style="fill:none;stroke:rgb(85,142,213)" clip-path="url(#clip11)" />
<clipPath id="clip12"><path d="M1247,288 L1993,288 L1993,553 L1247,553 L1247,288 Z" /></clipPath>
<path d="M1377,433.8203125 L1390,433.8867188" style="fill:none;stroke:rgb(85,142,213)" clip-path="url(#clip12)" />
<clipPath id="clip13"><path d="M1247,410 L1380,410 L1380,458 L1247,458 L1247,410 Z" /></clipPath>
<path d="M1254,412 C1251.2382813,412 1249,414.2382813 1249,417 L1249,450 C1249,452.7617188 1251.2382813,455 1254,455 L1372,455 C1374.7617188,455 1377,452.7617188 1377,450 L1377,417 C1377,414.2382813 1374.7617188,412 1372,412 Z M1254,412" style="fill:rgb(220,230,242);stroke:none" clip-path="url(#clip13)" />
<clipPath id="clip14"><path d="M1247,410 L1380,410 L1380,458 L1247,458 L1247,410 Z" /></clipPath>
<path d="M1254,412 C1251.2382813,412 1249,414.2382813 1249,417 L1249,450 C1249,452.7617188 1251.2382813,455 1254,455 L1372,455 C1374.7617188,455 1377,452.7617188 1377,450 L1377,417 C1377,414.2382813 1374.7617188,412 1372,412 Z M1254,412" style="fill:none;stroke:rgb(85,142,213);stroke-width:2" clip-path="url(#clip14)" />
<text x="1263" y="436" style="font:13px Open Sans">Humanisme</text>
<clipPath id="clip15"><path d="M1378,428 L1391,428 L1391,441 L1378,441 L1378,428 Z" /></clipPath>
<path d="M1388.5,434 C1388.5,431.515625 1386.484375,429.5 1384,429.5 C1381.515625,429.5 1379.5,431.515625 1379.5,434 C1379.5,436.484375 1381.515625,438.5 1384,438.5 C1386.484375,438.5 1388.5,436.484375 1388.5,434 Z M1388.5,434" style="fill:rgb(250,250,250);stroke:none" clip-path="url(#clip15)" />
<clipPath id="clip16"><path d="M1378,428 L1391,428 L1391,441 L1378,441 L1378,428 Z" /></clipPath>
<path d="M1388.5,434 C1388.5,431.515625 1386.484375,429.5 1384,429.5 C1381.515625,429.5 1379.5,431.515625 1379.5,434 C1379.5,436.484375 1381.515625,438.5 1384,438.5 C1386.484375,438.5 1388.5,436.484375 1388.5,434 Z M1388.5,434" style="fill:none;stroke:rgb(85,142,213)" clip-path="url(#clip16)" />
<clipPath id="clip17"><path d="M1378,428 L1391,428 L1391,441 L1378,441 L1378,428 Z" /></clipPath>
<path d="M1382,434 L1386,434" style="fill:none;stroke:rgb(150,160,200)" clip-path="url(#clip17)" />
<clipPath id="clip18"><path d="M1398,289 L1715,289 L1715,321 L1398,321 Z M1400,291 L1400,318 L1516,318 L1516,291 Z M1400,291 Z M1400,291" /></clipPath>
<path d="M1529,319 C1531.4453125,319 1535.109375,319 1540,319" style="fill:none;stroke:rgb(85,142,213)" clip-path="url(#clip18)" />
<clipPath id="clip19"><path d="M1397,288 L1716,288 L1716,322 L1397,322 L1397,288 Z" /></clipPath>
<path d="M1516,319 L1529,319" style="fill:none;stroke:rgb(85,142,213)" clip-path="url(#clip19)" />
<clipPath id="clip20"><path d="M1397,288 L1520,288 L1520,322 L1397,322 L1397,288 Z" /></clipPath>
<path d="M1400,319 L1516,319 Z M1400,319" style="fill:none;stroke:rgb(85,142,213);stroke-width:3" clip-path="url(#clip20)" />
<text x="1411" y="307" style="font:10px Open Sans">Antrocentrísme</text>
<clipPath id="clip21"><path d="M1518,299 L1531,299 L1531,312 L1518,312 L1518,299 Z" /></clipPath>
<path d="M1528.5,305 C1528.5,302.515625 1526.484375,300.5 1524,300.5 C1521.515625,300.5 1519.5,302.515625 1519.5,305 C1519.5,307.484375 1521.515625,309.5 1524,309.5 C1526.484375,309.5 1528.5,307.484375 1528.5,305 Z M1528.5,305" style="fill:rgb(250,250,250);stroke:none" clip-path="url(#clip21)" />
<clipPath id="clip22"><path d="M1518,299 L1531,299 L1531,312 L1518,312 L1518,299 Z" /></clipPath>
<path d="M1528.5,305 C1528.5,302.515625 1526.484375,300.5 1524,300.5 C1521.515625,300.5 1519.5,302.515625 1519.5,305 C1519.5,307.484375 1521.515625,309.5 1524,309.5 C1526.484375,309.5 1528.5,307.484375 1528.5,305 Z M1528.5,305" style="fill:none;stroke:rgb(85,142,213)" clip-path="url(#clip22)" />
<clipPath id="clip23"><path d="M1518,299 L1531,299 L1531,312 L1518,312 L1518,299 Z" /></clipPath>
<path d="M1522,305 L1526,305" style="fill:none;stroke:rgb(150,160,200)" clip-path="url(#clip23)" />
<clipPath id="clip24"><path d="M1537,288 L1716,288 L1716,322 L1537,322 L1537,288 Z" /></clipPath>
<path d="M1540,319 L1712,319 Z M1540,319" style="fill:none;stroke:rgb(85,142,213);stroke-width:3" clip-path="url(#clip24)" />
<text x="1551" y="307" style="font:10px Open Sans">L'ésser humà és el centre</text>
<clipPath id="clip25"><path d="M1397,321 L1606,321 L1606,355 L1397,355 L1397,321 Z" /></clipPath>
<path d="M1400,352 L1602,352 Z M1400,352" style="fill:none;stroke:rgb(85,142,213);stroke-width:3" clip-path="url(#clip25)" />
<text x="1411" y="340" style="font:10px Open Sans">Inspirat en l'Antiguitat clàssica</text>
<clipPath id="clip26"><path d="M1398,355 L1684,355 L1684,420 L1398,420 Z M1400,373 L1400,400 L1470,400 L1470,373 Z M1400,373 Z M1400,373" /></clipPath>
<path d="M1483,401 C1485.4453125,390.3320313 1489.109375,385 1494,385" style="fill:none;stroke:rgb(85,142,213)" clip-path="url(#clip26)" />
<clipPath id="clip27"><path d="M1398,355 L1684,355 L1684,420 L1398,420 Z M1400,373 L1400,400 L1470,400 L1470,373 Z M1400,373 Z M1400,373" /></clipPath>
<path d="M1483,401 C1485.4453125,412.3320313 1489.109375,418 1494,418" style="fill:none;stroke:rgb(85,142,213)" clip-path="url(#clip27)" />
<clipPath id="clip28"><path d="M1397,354 L1685,354 L1685,421 L1397,421 L1397,354 Z" /></clipPath>
<path d="M1470,401 L1483,401" style="fill:none;stroke:rgb(85,142,213)" clip-path="url(#clip28)" />
<clipPath id="clip29"><path d="M1397,370 L1474,370 L1474,404 L1397,404 L1397,370 Z" /></clipPath>
<path d="M1400,401 L1470,401 Z M1400,401" style="fill:none;stroke:rgb(85,142,213);stroke-width:3" clip-path="url(#clip29)" />
<text x="1411" y="389" style="font:10px Open Sans">Mètode</text>
<clipPath id="clip30"><path d="M1472,381 L1485,381 L1485,394 L1472,394 L1472,381 Z" /></clipPath>
<path d="M1482.5,387 C1482.5,384.515625 1480.484375,382.5 1478,382.5 C1475.515625,382.5 1473.5,384.515625 1473.5,387 C1473.5,389.484375 1475.515625,391.5 1478,391.5 C1480.484375,391.5 1482.5,389.484375 1482.5,387 Z M1482.5,387" style="fill:rgb(250,250,250);stroke:none" clip-path="url(#clip30)" />
<clipPath id="clip31"><path d="M1472,381 L1485,381 L1485,394 L1472,394 L1472,381 Z" /></clipPath>
<path d="M1482.5,387 C1482.5,384.515625 1480.484375,382.5 1478,382.5 C1475.515625,382.5 1473.5,384.515625 1473.5,387 C1473.5,389.484375 1475.515625,391.5 1478,391.5 C1480.484375,391.5 1482.5,389.484375 1482.5,387 Z M1482.5,387" style="fill:none;stroke:rgb(85,142,213)" clip-path="url(#clip31)" />
<clipPath id="clip32"><path d="M1472,381 L1485,381 L1485,394 L1472,394 L1472,381 Z" /></clipPath>
<path d="M1476,387 L1480,387" style="fill:none;stroke:rgb(150,160,200)" clip-path="url(#clip32)" />
<clipPath id="clip33"><path d="M1491,354 L1685,354 L1685,388 L1491,388 L1491,354 Z" /></clipPath>
<path d="M1494,385 L1681,385 Z M1494,385" style="fill:none;stroke:rgb(85,142,213);stroke-width:3" clip-path="url(#clip33)" />
<text x="1505" y="373" style="font:10px Open Sans">Observació de la naturalesa</text>
<clipPath id="clip34"><path d="M1491,387 L1591,387 L1591,421 L1491,421 L1491,387 Z" /></clipPath>
<path d="M1494,418 L1587,418 Z M1494,418" style="fill:none;stroke:rgb(85,142,213);stroke-width:3" clip-path="url(#clip34)" />
<text x="1505" y="406" style="font:10px Open Sans">Ús de la raó</text>
<clipPath id="clip35"><path d="M1398,421 L1992,421 L1992,519 L1398,519 Z M1400,456 L1400,483 L1495,483 L1495,456 Z M1400,456 Z M1400,456" /></clipPath>
<path d="M1508,484 C1510.4453125,462 1514.109375,451 1519,451" style="fill:none;stroke:rgb(85,142,213)" clip-path="url(#clip35)" />
<clipPath id="clip36"><path d="M1398,421 L1992,421 L1992,519 L1398,519 Z M1400,456 L1400,483 L1495,483 L1495,456 Z M1400,456 Z M1400,456" /></clipPath>
<path d="M1508,484 C1510.4453125,484 1514.109375,484 1519,484" style="fill:none;stroke:rgb(85,142,213)" clip-path="url(#clip36)" />
<clipPath id="clip37"><path d="M1398,421 L1992,421 L1992,519 L1398,519 Z M1400,456 L1400,483 L1495,483 L1495,456 Z M1400,456 Z M1400,456" /></clipPath>
<path d="M1508,484 C1510.4453125,506 1514.109375,517 1519,517" style="fill:none;stroke:rgb(85,142,213)" clip-path="url(#clip37)" />
<clipPath id="clip38"><path d="M1397,420 L1993,420 L1993,520 L1397,520 L1397,420 Z" /></clipPath>
<path d="M1495,484 L1508,484" style="fill:none;stroke:rgb(85,142,213)" clip-path="url(#clip38)" />
<clipPath id="clip39"><path d="M1397,453 L1499,453 L1499,487 L1397,487 L1397,453 Z" /></clipPath>
<path d="M1400,484 L1495,484 Z M1400,484" style="fill:none;stroke:rgb(85,142,213);stroke-width:3" clip-path="url(#clip39)" />
<text x="1411" y="472" style="font:10px Open Sans">Humanistes</text>
<clipPath id="clip40"><path d="M1497,464 L1510,464 L1510,477 L1497,477 L1497,464 Z" /></clipPath>
<path d="M1507.5,470 C1507.5,467.515625 1505.484375,465.5 1503,465.5 C1500.515625,465.5 1498.5,467.515625 1498.5,470 C1498.5,472.484375 1500.515625,474.5 1503,474.5 C1505.484375,474.5 1507.5,472.484375 1507.5,470 Z M1507.5,470" style="fill:rgb(250,250,250);stroke:none" clip-path="url(#clip40)" />
<clipPath id="clip41"><path d="M1497,464 L1510,464 L1510,477 L1497,477 L1497,464 Z" /></clipPath>
<path d="M1507.5,470 C1507.5,467.515625 1505.484375,465.5 1503,465.5 C1500.515625,465.5 1498.5,467.515625 1498.5,470 C1498.5,472.484375 1500.515625,474.5 1503,474.5 C1505.484375,474.5 1507.5,472.484375 1507.5,470 Z M1507.5,470" style="fill:none;stroke:rgb(85,142,213)" clip-path="url(#clip41)" />
<clipPath id="clip42"><path d="M1497,464 L1510,464 L1510,477 L1497,477 L1497,464 Z" /></clipPath>
<path d="M1501,470 L1505,470" style="fill:none;stroke:rgb(150,160,200)" clip-path="url(#clip42)" />
<clipPath id="clip43"><path d="M1517,421 L1769,421 L1769,453 L1517,453 Z M1519,423 L1519,450 L1595,450 L1595,423 Z M1519,423 Z M1519,423" /></clipPath>
<path d="M1608,451 C1610.4453125,451 1614.109375,451 1619,451" style="fill:none;stroke:rgb(85,142,213)" clip-path="url(#clip43)" />
<clipPath id="clip44"><path d="M1516,420 L1770,420 L1770,454 L1516,454 L1516,420 Z" /></clipPath>
<path d="M1595,451 L1608,451" style="fill:none;stroke:rgb(85,142,213)" clip-path="url(#clip44)" />
<clipPath id="clip45"><path d="M1516,420 L1599,420 L1599,454 L1516,454 L1516,420 Z" /></clipPath>
<path d="M1519,451 L1595,451 Z M1519,451" style="fill:none;stroke:rgb(85,142,213);stroke-width:3" clip-path="url(#clip45)" />
<text x="1530" y="439" style="font:10px Open Sans">Toscalelli</text>
<clipPath id="clip46"><path d="M1597,431 L1610,431 L1610,444 L1597,444 L1597,431 Z" /></clipPath>
<path d="M1607.5,437 C1607.5,434.515625 1605.484375,432.5 1603,432.5 C1600.515625,432.5 1598.5,434.515625 1598.5,437 C1598.5,439.484375 1600.515625,441.5 1603,441.5 C1605.484375,441.5 1607.5,439.484375 1607.5,437 Z M1607.5,437" style="fill:rgb(250,250,250);stroke:none" clip-path="url(#clip46)" />
<clipPath id="clip47"><path d="M1597,431 L1610,431 L1610,444 L1597,444 L1597,431 Z" /></clipPath>
<path d="M1607.5,437 C1607.5,434.515625 1605.484375,432.5 1603,432.5 C1600.515625,432.5 1598.5,434.515625 1598.5,437 C1598.5,439.484375 1600.515625,441.5 1603,441.5 C1605.484375,441.5 1607.5,439.484375 1607.5,437 Z M1607.5,437" style="fill:none;stroke:rgb(85,142,213)" clip-path="url(#clip47)" />
<clipPath id="clip48"><path d="M1597,431 L1610,431 L1610,444 L1597,444 L1597,431 Z" /></clipPath>
<path d="M1601,437 L1605,437" style="fill:none;stroke:rgb(150,160,200)" clip-path="url(#clip48)" />
<clipPath id="clip49"><path d="M1616,420 L1770,420 L1770,454 L1616,454 L1616,420 Z" /></clipPath>
<path d="M1619,451 L1766,451 Z M1619,451" style="fill:none;stroke:rgb(85,142,213);stroke-width:3" clip-path="url(#clip49)" />
<text x="1630" y="439" style="font:10px Open Sans">«La Terra és redona»</text>
<clipPath id="clip50"><path d="M1517,454 L1992,454 L1992,486 L1517,486 Z M1519,456 L1519,483 L1640,483 L1640,456 Z M1519,456 Z M1519,456" /></clipPath>
<path d="M1653,484 C1655.4453125,484 1659.109375,484 1664,484" style="fill:none;stroke:rgb(85,142,213)" clip-path="url(#clip50)" />
<clipPath id="clip51"><path d="M1516,453 L1993,453 L1993,487 L1516,487 L1516,453 Z" /></clipPath>
<path d="M1640,484 L1653,484" style="fill:none;stroke:rgb(85,142,213)" clip-path="url(#clip51)" />
<clipPath id="clip52"><path d="M1516,453 L1644,453 L1644,487 L1516,487 L1516,453 Z" /></clipPath>
<path d="M1519,484 L1640,484 Z M1519,484" style="fill:none;stroke:rgb(85,142,213);stroke-width:3" clip-path="url(#clip52)" />
<text x="1530" y="472" style="font:10px Open Sans">Galilei i Copèrnic</text>
<clipPath id="clip53"><path d="M1642,464 L1655,464 L1655,477 L1642,477 L1642,464 Z" /></clipPath>
<path d="M1652.5,470 C1652.5,467.515625 1650.484375,465.5 1648,465.5 C1645.515625,465.5 1643.5,467.515625 1643.5,470 C1643.5,472.484375 1645.515625,474.5 1648,474.5 C1650.484375,474.5 1652.5,472.484375 1652.5,470 Z M1652.5,470" style="fill:rgb(250,250,250);stroke:none" clip-path="url(#clip53)" />
<clipPath id="clip54"><path d="M1642,464 L1655,464 L1655,477 L1642,477 L1642,464 Z" /></clipPath>
<path d="M1652.5,470 C1652.5,467.515625 1650.484375,465.5 1648,465.5 C1645.515625,465.5 1643.5,467.515625 1643.5,470 C1643.5,472.484375 1645.515625,474.5 1648,474.5 C1650.484375,474.5 1652.5,472.484375 1652.5,470 Z M1652.5,470" style="fill:none;stroke:rgb(85,142,213)" clip-path="url(#clip54)" />
<clipPath id="clip55"><path d="M1642,464 L1655,464 L1655,477 L1642,477 L1642,464 Z" /></clipPath>
<path d="M1646,470 L1650,470" style="fill:none;stroke:rgb(150,160,200)" clip-path="url(#clip55)" />
<clipPath id="clip56"><path d="M1661,453 L1993,453 L1993,487 L1661,487 L1661,453 Z" /></clipPath>
<path d="M1664,484 L1989,484 Z M1664,484" style="fill:none;stroke:rgb(85,142,213);stroke-width:3" clip-path="url(#clip56)" />
<text x="1675" y="472" style="font:10px Open Sans">Van demostrar que la Terra girava al voltant del Sol</text>
<clipPath id="clip57"><path d="M1517,487 L1726,487 L1726,519 L1517,519 Z M1519,489 L1519,516 L1580,516 L1580,489 Z M1519,489 Z M1519,489" /></clipPath>
<path d="M1593,517 C1595.4453125,517 1599.109375,517 1604,517" style="fill:none;stroke:rgb(85,142,213)" clip-path="url(#clip57)" />
<clipPath id="clip58"><path d="M1516,486 L1727,486 L1727,520 L1516,520 L1516,486 Z" /></clipPath>
<path d="M1580,517 L1593,517" style="fill:none;stroke:rgb(85,142,213)" clip-path="url(#clip58)" />
<clipPath id="clip59"><path d="M1516,486 L1584,486 L1584,520 L1516,520 L1516,486 Z" /></clipPath>
<path d="M1519,517 L1580,517 Z M1519,517" style="fill:none;stroke:rgb(85,142,213);stroke-width:3" clip-path="url(#clip59)" />
<text x="1530" y="505" style="font:10px Open Sans">Servet</text>
<clipPath id="clip60"><path d="M1582,497 L1595,497 L1595,510 L1582,510 L1582,497 Z" /></clipPath>
<path d="M1592.5,503 C1592.5,500.515625 1590.484375,498.5 1588,498.5 C1585.515625,498.5 1583.5,500.515625 1583.5,503 C1583.5,505.484375 1585.515625,507.5 1588,507.5 C1590.484375,507.5 1592.5,505.484375 1592.5,503 Z M1592.5,503" style="fill:rgb(250,250,250);stroke:none" clip-path="url(#clip60)" />
<clipPath id="clip61"><path d="M1582,497 L1595,497 L1595,510 L1582,510 L1582,497 Z" /></clipPath>
<path d="M1592.5,503 C1592.5,500.515625 1590.484375,498.5 1588,498.5 C1585.515625,498.5 1583.5,500.515625 1583.5,503 C1583.5,505.484375 1585.515625,507.5 1588,507.5 C1590.484375,507.5 1592.5,505.484375 1592.5,503 Z M1592.5,503" style="fill:none;stroke:rgb(85,142,213)" clip-path="url(#clip61)" />
<clipPath id="clip62"><path d="M1582,497 L1595,497 L1595,510 L1582,510 L1582,497 Z" /></clipPath>
<path d="M1586,503 L1590,503" style="fill:none;stroke:rgb(150,160,200)" clip-path="url(#clip62)" />
<clipPath id="clip63"><path d="M1601,486 L1727,486 L1727,520 L1601,520 L1601,486 Z" /></clipPath>
<path d="M1604,517 L1723,517 Z M1604,517" style="fill:none;stroke:rgb(85,142,213);stroke-width:3" clip-path="url(#clip63)" />
<text x="1615" y="505" style="font:10px Open Sans">Avanç en cirugia</text>
<clipPath id="clip64"><path d="M1398,520 L1688,520 L1688,552 L1398,552 Z M1400,522 L1400,549 L1468,549 L1468,522 Z M1400,522 Z M1400,522" /></clipPath>
<path d="M1481,550 C1483.4453125,550 1487.109375,550 1492,550" style="fill:none;stroke:rgb(85,142,213)" clip-path="url(#clip64)" />
<clipPath id="clip65"><path d="M1397,519 L1689,519 L1689,553 L1397,553 L1397,519 Z" /></clipPath>
<path d="M1468,550 L1481,550" style="fill:none;stroke:rgb(85,142,213)" clip-path="url(#clip65)" />
<clipPath id="clip66"><path d="M1397,519 L1472,519 L1472,553 L1397,553 L1397,519 Z" /></clipPath>
<path d="M1400,550 L1468,550 Z M1400,550" style="fill:none;stroke:rgb(85,142,213);stroke-width:3" clip-path="url(#clip66)" />
<text x="1411" y="538" style="font:10px Open Sans">Invents</text>
<clipPath id="clip67"><path d="M1470,530 L1483,530 L1483,543 L1470,543 L1470,530 Z" /></clipPath>
<path d="M1480.5,536 C1480.5,533.515625 1478.484375,531.5 1476,531.5 C1473.515625,531.5 1471.5,533.515625 1471.5,536 C1471.5,538.484375 1473.515625,540.5 1476,540.5 C1478.484375,540.5 1480.5,538.484375 1480.5,536 Z M1480.5,536" style="fill:rgb(250,250,250);stroke:none" clip-path="url(#clip67)" />
<clipPath id="clip68"><path d="M1470,530 L1483,530 L1483,543 L1470,543 L1470,530 Z" /></clipPath>
<path d="M1480.5,536 C1480.5,533.515625 1478.484375,531.5 1476,531.5 C1473.515625,531.5 1471.5,533.515625 1471.5,536 C1471.5,538.484375 1473.515625,540.5 1476,540.5 C1478.484375,540.5 1480.5,538.484375 1480.5,536 Z M1480.5,536" style="fill:none;stroke:rgb(85,142,213)" clip-path="url(#clip68)" />
<clipPath id="clip69"><path d="M1470,530 L1483,530 L1483,543 L1470,543 L1470,530 Z" /></clipPath>
<path d="M1474,536 L1478,536" style="fill:none;stroke:rgb(150,160,200)" clip-path="url(#clip69)" />
<clipPath id="clip70"><path d="M1489,519 L1689,519 L1689,553 L1489,553 L1489,519 Z" /></clipPath>
<path d="M1492,550 L1685,550 Z M1492,550" style="fill:none;stroke:rgb(85,142,213);stroke-width:3" clip-path="url(#clip70)" />
<text x="1503" y="538" style="font:10px Open Sans">Impremta 1450 - Gutenberg</text>
<clipPath id="clip71"><path d="M1248,582 L2026,582 L2026,1152 L1248,1152 Z M1254,861 C1251.2382813,861 1249,863.2382813 1249,866 L1249,899 C1249,901.7617188 1251.2382813,904 1254,904 L1453,904 C1455.7617188,904 1458,901.7617188 1458,899 L1458,866 C1458,863.2382813 1455.7617188,861 1453,861 Z M1254,861 Z M1254,861" /></clipPath>
<path d="M1471,883.0859375 C1473.2226563,762.3632813 1476.5546875,702 1481,702" style="fill:none;stroke:rgb(85,142,213)" clip-path="url(#clip71)" />
<clipPath id="clip72"><path d="M1248,582 L2026,582 L2026,1152 L1248,1152 Z M1254,861 C1251.2382813,861 1249,863.2382813 1249,866 L1249,899 C1249,901.7617188 1251.2382813,904 1254,904 L1453,904 C1455.7617188,904 1458,901.7617188 1458,899 L1458,866 C1458,863.2382813 1455.7617188,861 1453,861 Z M1254,861 Z M1254,861" /></clipPath>
<path d="M1471,883.0859375 C1473.2226563,878.3632813 1476.5546875,876 1481,876" style="fill:none;stroke:rgb(85,142,213)" clip-path="url(#clip72)" />
<clipPath id="clip73"><path d="M1248,582 L2026,582 L2026,1152 L1248,1152 Z M1254,861 C1251.2382813,861 1249,863.2382813 1249,866 L1249,899 C1249,901.7617188 1251.2382813,904 1254,904 L1453,904 C1455.7617188,904 1458,901.7617188 1458,899 L1458,866 C1458,863.2382813 1455.7617188,861 1453,861 Z M1254,861 Z M1254,861" /></clipPath>
<path d="M1471,883.0859375 C1473.2226563,1004.3632813 1476.5546875,1065 1481,1065" style="fill:none;stroke:rgb(85,142,213)" clip-path="url(#clip73)" />
<clipPath id="clip74"><path d="M1247,581 L2027,581 L2027,1153 L1247,1153 L1247,581 Z" /></clipPath>
<path d="M1458,883.0195313 L1471,883.0859375" style="fill:none;stroke:rgb(85,142,213)" clip-path="url(#clip74)" />
<clipPath id="clip75"><path d="M1247,859 L1461,859 L1461,907 L1247,907 L1247,859 Z" /></clipPath>
<path d="M1254,861 C1251.2382813,861 1249,863.2382813 1249,866 L1249,899 C1249,901.7617188 1251.2382813,904 1254,904 L1453,904 C1455.7617188,904 1458,901.7617188 1458,899 L1458,866 C1458,863.2382813 1455.7617188,861 1453,861 Z M1254,861" style="fill:rgb(220,230,242);stroke:none" clip-path="url(#clip75)" />
<clipPath id="clip76"><path d="M1247,859 L1461,859 L1461,907 L1247,907 L1247,859 Z" /></clipPath>
<path d="M1254,861 C1251.2382813,861 1249,863.2382813 1249,866 L1249,899 C1249,901.7617188 1251.2382813,904 1254,904 L1453,904 C1455.7617188,904 1458,901.7617188 1458,899 L1458,866 C1458,863.2382813 1455.7617188,861 1453,861 Z M1254,861" style="fill:none;stroke:rgb(85,142,213);stroke-width:2" clip-path="url(#clip76)" />
<text x="1263" y="884" style="font:13px Open Sans">Monarquía autoritaria</text>
<clipPath id="clip77"><path d="M1459,877 L1472,877 L1472,890 L1459,890 L1459,877 Z" /></clipPath>
<path d="M1469.5,883 C1469.5,880.515625 1467.484375,878.5 1465,878.5 C1462.515625,878.5 1460.5,880.515625 1460.5,883 C1460.5,885.484375 1462.515625,887.5 1465,887.5 C1467.484375,887.5 1469.5,885.484375 1469.5,883 Z M1469.5,883" style="fill:rgb(250,250,250);stroke:none" clip-path="url(#clip77)" />
<clipPath id="clip78"><path d="M1459,877 L1472,877 L1472,890 L1459,890 L1459,877 Z" /></clipPath>
<path d="M1469.5,883 C1469.5,880.515625 1467.484375,878.5 1465,878.5 C1462.515625,878.5 1460.5,880.515625 1460.5,883 C1460.5,885.484375 1462.515625,887.5 1465,887.5 C1467.484375,887.5 1469.5,885.484375 1469.5,883 Z M1469.5,883" style="fill:none;stroke:rgb(85,142,213)" clip-path="url(#clip78)" />
<clipPath id="clip79"><path d="M1459,877 L1472,877 L1472,890 L1459,890 L1459,877 Z" /></clipPath>
<path d="M1463,883 L1467,883" style="fill:none;stroke:rgb(150,160,200)" clip-path="url(#clip79)" />
<clipPath id="clip80"><path d="M1479,582 L2026,582 L2026,812 L1479,812 Z M1481,674 L1481,701 L1577,701 L1577,674 Z M1481,674 Z M1481,674" /></clipPath>
<path d="M1590,702 C1592.4453125,652.6679688 1596.109375,628 1601,628" style="fill:none;stroke:rgb(85,142,213)" clip-path="url(#clip80)" />
<clipPath id="clip81"><path d="M1479,582 L2026,582 L2026,812 L1479,812 Z M1481,674 L1481,701 L1577,701 L1577,674 Z M1481,674 Z M1481,674" /></clipPath>
<path d="M1590,702 C1592.4453125,686 1596.109375,678 1601,678" style="fill:none;stroke:rgb(85,142,213)" clip-path="url(#clip81)" />
<clipPath id="clip82"><path d="M1479,582 L2026,582 L2026,812 L1479,812 Z M1481,674 L1481,701 L1577,701 L1577,674 Z M1481,674 Z M1481,674" /></clipPath>
<path d="M1590,702 C1592.4453125,708 1596.109375,711 1601,711" style="fill:none;stroke:rgb(85,142,213)" clip-path="url(#clip82)" />
<clipPath id="clip83"><path d="M1479,582 L2026,582 L2026,812 L1479,812 Z M1481,674 L1481,701 L1577,701 L1577,674 Z M1481,674 Z M1481,674" /></clipPath>
<path d="M1590,702 C1592.4453125,752 1596.109375,777 1601,777" style="fill:none;stroke:rgb(85,142,213)" clip-path="url(#clip83)" />
<clipPath id="clip84"><path d="M1478,581 L2027,581 L2027,813 L1478,813 L1478,581 Z" /></clipPath>
<path d="M1577,702 L1590,702" style="fill:none;stroke:rgb(85,142,213)" clip-path="url(#clip84)" />
<clipPath id="clip85"><path d="M1478,671 L1581,671 L1581,705 L1478,705 L1478,671 Z" /></clipPath>
<path d="M1481,702 L1577,702 Z M1481,702" style="fill:none;stroke:rgb(85,142,213);stroke-width:3" clip-path="url(#clip85)" />
<text x="1492" y="689" style="font:10px Open Sans">Reis Catòlics</text>
<clipPath id="clip86"><path d="M1579,682 L1592,682 L1592,695 L1579,695 L1579,682 Z" /></clipPath>
<path d="M1589.5,688 C1589.5,685.515625 1587.484375,683.5 1585,683.5 C1582.515625,683.5 1580.5,685.515625 1580.5,688 C1580.5,690.484375 1582.515625,692.5 1585,692.5 C1587.484375,692.5 1589.5,690.484375 1589.5,688 Z M1589.5,688" style="fill:rgb(250,250,250);stroke:none" clip-path="url(#clip86)" />
<clipPath id="clip87"><path d="M1579,682 L1592,682 L1592,695 L1579,695 L1579,682 Z" /></clipPath>
<path d="M1589.5,688 C1589.5,685.515625 1587.484375,683.5 1585,683.5 C1582.515625,683.5 1580.5,685.515625 1580.5,688 C1580.5,690.484375 1582.515625,692.5 1585,692.5 C1587.484375,692.5 1589.5,690.484375 1589.5,688 Z M1589.5,688" style="fill:none;stroke:rgb(85,142,213)" clip-path="url(#clip87)" />
<clipPath id="clip88"><path d="M1579,682 L1592,682 L1592,695 L1579,695 L1579,682 Z" /></clipPath>
<path d="M1583,688 L1587,688" style="fill:none;stroke:rgb(150,160,200)" clip-path="url(#clip88)" />
<clipPath id="clip89"><path d="M1599,582 L1799,582 L1799,647 L1599,647 Z M1601,600 L1601,627 L1647,627 L1647,600 Z M1601,600 Z M1601,600" /></clipPath>
<path d="M1660,628 C1662.4453125,617.3320313 1666.109375,612 1671,612" style="fill:none;stroke:rgb(85,142,213)" clip-path="url(#clip89)" />
<clipPath id="clip90"><path d="M1599,582 L1799,582 L1799,647 L1599,647 Z M1601,600 L1601,627 L1647,627 L1647,600 Z M1601,600 Z M1601,600" /></clipPath>
<path d="M1660,628 C1662.4453125,639.3320313 1666.109375,645 1671,645" style="fill:none;stroke:rgb(85,142,213)" clip-path="url(#clip90)" />
<clipPath id="clip91"><path d="M1598,581 L1800,581 L1800,648 L1598,648 L1598,581 Z" /></clipPath>
<path d="M1647,628 L1660,628" style="fill:none;stroke:rgb(85,142,213)" clip-path="url(#clip91)" />
<clipPath id="clip92"><path d="M1598,597 L1651,597 L1651,631 L1598,631 L1598,597 Z" /></clipPath>
<path d="M1601,628 L1647,628 Z M1601,628" style="fill:none;stroke:rgb(85,142,213);stroke-width:3" clip-path="url(#clip92)" />
<text x="1612" y="616" style="font:10px Open Sans">Són</text>
<clipPath id="clip93"><path d="M1649,608 L1662,608 L1662,621 L1649,621 L1649,608 Z" /></clipPath>
<path d="M1659.5,614 C1659.5,611.515625 1657.484375,609.5 1655,609.5 C1652.515625,609.5 1650.5,611.515625 1650.5,614 C1650.5,616.484375 1652.515625,618.5 1655,618.5 C1657.484375,618.5 1659.5,616.484375 1659.5,614 Z M1659.5,614" style="fill:rgb(250,250,250);stroke:none" clip-path="url(#clip93)" />
<clipPath id="clip94"><path d="M1649,608 L1662,608 L1662,621 L1649,621 L1649,608 Z" /></clipPath>
<path d="M1659.5,614 C1659.5,611.515625 1657.484375,609.5 1655,609.5 C1652.515625,609.5 1650.5,611.515625 1650.5,614 C1650.5,616.484375 1652.515625,618.5 1655,618.5 C1657.484375,618.5 1659.5,616.484375 1659.5,614 Z M1659.5,614" style="fill:none;stroke:rgb(85,142,213)" clip-path="url(#clip94)" />
<clipPath id="clip95"><path d="M1649,608 L1662,608 L1662,621 L1649,621 L1649,608 Z" /></clipPath>
<path d="M1653,614 L1657,614" style="fill:none;stroke:rgb(150,160,200)" clip-path="url(#clip95)" />
<clipPath id="clip96"><path d="M1668,581 L1800,581 L1800,615 L1668,615 L1668,581 Z" /></clipPath>
<path d="M1671,612 L1796,612 Z M1671,612" style="fill:none;stroke:rgb(85,142,213);stroke-width:3" clip-path="url(#clip96)" />
<text x="1682" y="600" style="font:10px Open Sans">Isabel de Castella</text>
<clipPath id="clip97"><path d="M1668,614 L1786,614 L1786,648 L1668,648 L1668,614 Z" /></clipPath>
<path d="M1671,645 L1782,645 Z M1671,645" style="fill:none;stroke:rgb(85,142,213);stroke-width:3" clip-path="url(#clip97)" />
<text x="1682" y="633" style="font:10px Open Sans">Ferran d'Aragó</text>
<clipPath id="clip98"><path d="M1599,648 L1894,648 L1894,680 L1599,680 Z M1601,650 L1601,677 L1719,677 L1719,650 Z M1601,650 Z M1601,650" /></clipPath>
<path d="M1732,678 C1734.4453125,678 1738.109375,678 1743,678" style="fill:none;stroke:rgb(85,142,213)" clip-path="url(#clip98)" />
<clipPath id="clip99"><path d="M1598,647 L1895,647 L1895,681 L1598,681 L1598,647 Z" /></clipPath>
<path d="M1719,678 L1732,678" style="fill:none;stroke:rgb(85,142,213)" clip-path="url(#clip99)" />
<clipPath id="clip100"><path d="M1598,647 L1723,647 L1723,681 L1598,681 L1598,647 Z" /></clipPath>
<path d="M1601,678 L1719,678 Z M1601,678" style="fill:none;stroke:rgb(85,142,213);stroke-width:3" clip-path="url(#clip100)" />
<text x="1612" y="665" style="font:10px Open Sans">Es casen a 1462</text>
<clipPath id="clip101"><path d="M1721,658 L1734,658 L1734,671 L1721,671 L1721,658 Z" /></clipPath>
<path d="M1731.5,664 C1731.5,661.515625 1729.484375,659.5 1727,659.5 C1724.515625,659.5 1722.5,661.515625 1722.5,664 C1722.5,666.484375 1724.515625,668.5 1727,668.5 C1729.484375,668.5 1731.5,666.484375 1731.5,664 Z M1731.5,664" style="fill:rgb(250,250,250);stroke:none" clip-path="url(#clip101)" />
<clipPath id="clip102"><path d="M1721,658 L1734,658 L1734,671 L1721,671 L1721,658 Z" /></clipPath>
<path d="M1731.5,664 C1731.5,661.515625 1729.484375,659.5 1727,659.5 C1724.515625,659.5 1722.5,661.515625 1722.5,664 C1722.5,666.484375 1724.515625,668.5 1727,668.5 C1729.484375,668.5 1731.5,666.484375 1731.5,664 Z M1731.5,664" style="fill:none;stroke:rgb(85,142,213)" clip-path="url(#clip102)" />
<clipPath id="clip103"><path d="M1721,658 L1734,658 L1734,671 L1721,671 L1721,658 Z" /></clipPath>
<path d="M1725,664 L1729,664" style="fill:none;stroke:rgb(150,160,200)" clip-path="url(#clip103)" />
<clipPath id="clip104"><path d="M1740,647 L1895,647 L1895,681 L1740,681 L1740,647 Z" /></clipPath>
<path d="M1743,678 L1891,678 Z M1743,678" style="fill:none;stroke:rgb(85,142,213);stroke-width:3" clip-path="url(#clip104)" />
<text x="1754" y="665" style="font:10px Open Sans">Monarquia hispànica</text>
<clipPath id="clip105"><path d="M1598,680 L1769,680 L1769,714 L1598,714 L1598,680 Z" /></clipPath>
<path d="M1601,711 L1765,711 Z M1601,711" style="fill:none;stroke:rgb(85,142,213);stroke-width:3" clip-path="url(#clip105)" />
<text x="1612" y="698" style="font:10px Open Sans">Centralització del poder</text>
<clipPath id="clip106"><path d="M1599,714 L2026,714 L2026,812 L1599,812 Z M1601,749 L1601,776 L1765,776 L1765,749 Z M1601,749 Z M1601,749" /></clipPath>
<path d="M1778,777 C1780.4453125,755 1784.109375,744 1789,744" style="fill:none;stroke:rgb(85,142,213)" clip-path="url(#clip106)" />
<clipPath id="clip107"><path d="M1599,714 L2026,714 L2026,812 L1599,812 Z M1601,749 L1601,776 L1765,776 L1765,749 Z M1601,749 Z M1601,749" /></clipPath>
<path d="M1778,777 C1780.4453125,777 1784.109375,777 1789,777" style="fill:none;stroke:rgb(85,142,213)" clip-path="url(#clip107)" />
<clipPath id="clip108"><path d="M1599,714 L2026,714 L2026,812 L1599,812 Z M1601,749 L1601,776 L1765,776 L1765,749 Z M1601,749 Z M1601,749" /></clipPath>
<path d="M1778,777 C1780.4453125,799 1784.109375,810 1789,810" style="fill:none;stroke:rgb(85,142,213)" clip-path="url(#clip108)" />
<clipPath id="clip109"><path d="M1598,713 L2027,713 L2027,813 L1598,813 L1598,713 Z" /></clipPath>
<path d="M1765,777 L1778,777" style="fill:none;stroke:rgb(85,142,213)" clip-path="url(#clip109)" />
<clipPath id="clip110"><path d="M1598,746 L1769,746 L1769,780 L1598,780 L1598,746 Z" /></clipPath>
<path d="M1601,777 L1765,777 Z M1601,777" style="fill:none;stroke:rgb(85,142,213);stroke-width:3" clip-path="url(#clip110)" />
<text x="1612" y="764" style="font:10px Open Sans">Van expandir el territori</text>
<clipPath id="clip111"><path d="M1767,757 L1780,757 L1780,770 L1767,770 L1767,757 Z" /></clipPath>
<path d="M1777.5,763 C1777.5,760.515625 1775.484375,758.5 1773,758.5 C1770.515625,758.5 1768.5,760.515625 1768.5,763 C1768.5,765.484375 1770.515625,767.5 1773,767.5 C1775.484375,767.5 1777.5,765.484375 1777.5,763 Z M1777.5,763" style="fill:rgb(250,250,250);stroke:none" clip-path="url(#clip111)" />
<clipPath id="clip112"><path d="M1767,757 L1780,757 L1780,770 L1767,770 L1767,757 Z" /></clipPath>
<path d="M1777.5,763 C1777.5,760.515625 1775.484375,758.5 1773,758.5 C1770.515625,758.5 1768.5,760.515625 1768.5,763 C1768.5,765.484375 1770.515625,767.5 1773,767.5 C1775.484375,767.5 1777.5,765.484375 1777.5,763 Z M1777.5,763" style="fill:none;stroke:rgb(85,142,213)" clip-path="url(#clip112)" />
<clipPath id="clip113"><path d="M1767,757 L1780,757 L1780,770 L1767,770 L1767,757 Z" /></clipPath>
<path d="M1771,763 L1775,763" style="fill:none;stroke:rgb(150,160,200)" clip-path="url(#clip113)" />
<clipPath id="clip114"><path d="M1786,713 L2027,713 L2027,747 L1786,747 L1786,713 Z" /></clipPath>
<path d="M1789,744 L2023,744 Z M1789,744" style="fill:none;stroke:rgb(85,142,213);stroke-width:3" clip-path="url(#clip114)" />
<text x="1800" y="731" style="font:10px Open Sans">Regne musulmà de Granada - 1492</text>
<clipPath id="clip115"><path d="M1786,746 L2010,746 L2010,780 L1786,780 L1786,746 Z" /></clipPath>
<path d="M1789,777 L2006,777 Z M1789,777" style="fill:none;stroke:rgb(85,142,213);stroke-width:3" clip-path="url(#clip115)" />
<text x="1800" y="764" style="font:10px Open Sans">Illes Canàries, Melilla i Orà - 1496</text>
<clipPath id="clip116"><path d="M1786,779 L1964,779 L1964,813 L1786,813 L1786,779 Z" /></clipPath>
<path d="M1789,810 L1960,810 Z M1789,810" style="fill:none;stroke:rgb(85,142,213);stroke-width:3" clip-path="url(#clip116)" />
<text x="1800" y="797" style="font:10px Open Sans">Regne de Navarra - 1502</text>
<clipPath id="clip117"><path d="M1479,813 L1928,813 L1928,911 L1479,911 Z M1481,829 L1481,875 L1657,875 L1657,829 Z M1481,829 Z M1481,829" /></clipPath>
<path d="M1670,876 C1672.4453125,876 1676.109375,876 1681,876" style="fill:none;stroke:rgb(85,142,213)" clip-path="url(#clip117)" />
<clipPath id="clip118"><path d="M1478,812 L1929,812 L1929,912 L1478,912 L1478,812 Z" /></clipPath>
<path d="M1657,876 L1670,876" style="fill:none;stroke:rgb(85,142,213)" clip-path="url(#clip118)" />
<clipPath id="clip119"><path d="M1478,826 L1661,826 L1661,879 L1478,879 L1478,826 Z" /></clipPath>
<path d="M1481,876 L1657,876 Z M1481,876" style="fill:none;stroke:rgb(85,142,213);stroke-width:3" clip-path="url(#clip119)" />
<text x="1492" y="844" style="font:10px Open Sans">Imposen la seua autoritat</text>
<text x="1492" y="863" style="font:10px Open Sans">per davant de la noblesa</text>
<clipPath id="clip120"><path d="M1659,846 L1672,846 L1672,859 L1659,859 L1659,846 Z" /></clipPath>
<path d="M1669.5,852 C1669.5,849.515625 1667.484375,847.5 1665,847.5 C1662.515625,847.5 1660.5,849.515625 1660.5,852 C1660.5,854.484375 1662.515625,856.5 1665,856.5 C1667.484375,856.5 1669.5,854.484375 1669.5,852 Z M1669.5,852" style="fill:rgb(250,250,250);stroke:none" clip-path="url(#clip120)" />
<clipPath id="clip121"><path d="M1659,846 L1672,846 L1672,859 L1659,859 L1659,846 Z" /></clipPath>
<path d="M1669.5,852 C1669.5,849.515625 1667.484375,847.5 1665,847.5 C1662.515625,847.5 1660.5,849.515625 1660.5,852 C1660.5,854.484375 1662.515625,856.5 1665,856.5 C1667.484375,856.5 1669.5,854.484375 1669.5,852 Z M1669.5,852" style="fill:none;stroke:rgb(85,142,213)" clip-path="url(#clip121)" />
<clipPath id="clip122"><path d="M1659,846 L1672,846 L1672,859 L1659,859 L1659,846 Z" /></clipPath>
<path d="M1663,852 L1667,852" style="fill:none;stroke:rgb(150,160,200)" clip-path="url(#clip122)" />
<clipPath id="clip123"><path d="M1679,813 L1928,813 L1928,911 L1679,911 Z M1681,848 L1681,875 L1739,875 L1739,848 Z M1681,848 Z M1681,848" /></clipPath>
<path d="M1752,876 C1754.4453125,854 1758.109375,843 1763,843" style="fill:none;stroke:rgb(85,142,213)" clip-path="url(#clip123)" />
<clipPath id="clip124"><path d="M1679,813 L1928,813 L1928,911 L1679,911 Z M1681,848 L1681,875 L1739,875 L1739,848 Z M1681,848 Z M1681,848" /></clipPath>
<path d="M1752,876 C1754.4453125,876 1758.109375,876 1763,876" style="fill:none;stroke:rgb(85,142,213)" clip-path="url(#clip124)" />
<clipPath id="clip125"><path d="M1679,813 L1928,813 L1928,911 L1679,911 Z M1681,848 L1681,875 L1739,875 L1739,848 Z M1681,848 Z M1681,848" /></clipPath>
<path d="M1752,876 C1754.4453125,898 1758.109375,909 1763,909" style="fill:none;stroke:rgb(85,142,213)" clip-path="url(#clip125)" />
<clipPath id="clip126"><path d="M1678,812 L1929,812 L1929,912 L1678,912 L1678,812 Z" /></clipPath>
<path d="M1739,876 L1752,876" style="fill:none;stroke:rgb(85,142,213)" clip-path="url(#clip126)" />
<clipPath id="clip127"><path d="M1678,845 L1743,845 L1743,879 L1678,879 L1678,845 Z" /></clipPath>
<path d="M1681,876 L1739,876 Z M1681,876" style="fill:none;stroke:rgb(85,142,213);stroke-width:3" clip-path="url(#clip127)" />
<text x="1692" y="863" style="font:10px Open Sans">Creen</text>
<clipPath id="clip128"><path d="M1741,856 L1754,856 L1754,869 L1741,869 L1741,856 Z" /></clipPath>
<path d="M1751.5,862 C1751.5,859.515625 1749.484375,857.5 1747,857.5 C1744.515625,857.5 1742.5,859.515625 1742.5,862 C1742.5,864.484375 1744.515625,866.5 1747,866.5 C1749.484375,866.5 1751.5,864.484375 1751.5,862 Z M1751.5,862" style="fill:rgb(250,250,250);stroke:none" clip-path="url(#clip128)" />
<clipPath id="clip129"><path d="M1741,856 L1754,856 L1754,869 L1741,869 L1741,856 Z" /></clipPath>
<path d="M1751.5,862 C1751.5,859.515625 1749.484375,857.5 1747,857.5 C1744.515625,857.5 1742.5,859.515625 1742.5,862 C1742.5,864.484375 1744.515625,866.5 1747,866.5 C1749.484375,866.5 1751.5,864.484375 1751.5,862 Z M1751.5,862" style="fill:none;stroke:rgb(85,142,213)" clip-path="url(#clip129)" />
<clipPath id="clip130"><path d="M1741,856 L1754,856 L1754,869 L1741,869 L1741,856 Z" /></clipPath>
<path d="M1745,862 L1749,862" style="fill:none;stroke:rgb(150,160,200)" clip-path="url(#clip130)" />
<clipPath id="clip131"><path d="M1760,812 L1929,812 L1929,846 L1760,846 L1760,812 Z" /></clipPath>
<path d="M1763,843 L1925,843 Z M1763,843" style="fill:none;stroke:rgb(85,142,213);stroke-width:3" clip-path="url(#clip131)" />
<text x="1774" y="830" style="font:10px Open Sans">Organs de govern nous</text>
<clipPath id="clip132"><path d="M1760,845 L1907,845 L1907,879 L1760,879 L1760,845 Z" /></clipPath>
<path d="M1763,876 L1903,876 Z M1763,876" style="fill:none;stroke:rgb(85,142,213);stroke-width:3" clip-path="url(#clip132)" />
<text x="1774" y="863" style="font:10px Open Sans">Exercit professional</text>
<clipPath id="clip133"><path d="M1760,878 L1857,878 L1857,912 L1760,912 L1760,878 Z" /></clipPath>
<path d="M1763,909 L1853,909 Z M1763,909" style="fill:none;stroke:rgb(85,142,213);stroke-width:3" clip-path="url(#clip133)" />
<text x="1774" y="896" style="font:10px Open Sans">Diplomàcia</text>
<clipPath id="clip134"><path d="M1479,912 L1992,912 L1992,1152 L1479,1152 Z M1481,999 L1481,1064 L1595,1064 L1595,999 Z M1481,999 Z M1481,999" /></clipPath>
<path d="M1608,1065 C1610.4453125,1065 1614.109375,1065 1619,1065" style="fill:none;stroke:rgb(85,142,213)" clip-path="url(#clip134)" />
<clipPath id="clip135"><path d="M1478,911 L1993,911 L1993,1153 L1478,1153 L1478,911 Z" /></clipPath>
<path d="M1595,1065 L1608,1065" style="fill:none;stroke:rgb(85,142,213)" clip-path="url(#clip135)" />
<clipPath id="clip136"><path d="M1478,996 L1599,996 L1599,1068 L1478,1068 L1478,996 Z" /></clipPath>
<path d="M1481,1065 L1595,1065 Z M1481,1065" style="fill:none;stroke:rgb(85,142,213);stroke-width:3" clip-path="url(#clip136)" />
<text x="1492" y="1014" style="font:10px Open Sans">Imposaren una</text>
<text x="1492" y="1033" style="font:10px Open Sans">única religió</text>
<text x="1492" y="1052" style="font:10px Open Sans">el cristianisme</text>
<clipPath id="clip137"><path d="M1597,1026 L1610,1026 L1610,1039 L1597,1039 L1597,1026 Z" /></clipPath>
<path d="M1607.5,1032 C1607.5,1029.515625 1605.484375,1027.5 1603,1027.5 C1600.515625,1027.5 1598.5,1029.515625 1598.5,1032 C1598.5,1034.484375 1600.515625,1036.5 1603,1036.5 C1605.484375,1036.5 1607.5,1034.484375 1607.5,1032 Z M1607.5,1032" style="fill:rgb(250,250,250);stroke:none" clip-path="url(#clip137)" />
<clipPath id="clip138"><path d="M1597,1026 L1610,1026 L1610,1039 L1597,1039 L1597,1026 Z" /></clipPath>
<path d="M1607.5,1032 C1607.5,1029.515625 1605.484375,1027.5 1603,1027.5 C1600.515625,1027.5 1598.5,1029.515625 1598.5,1032 C1598.5,1034.484375 1600.515625,1036.5 1603,1036.5 C1605.484375,1036.5 1607.5,1034.484375 1607.5,1032 Z M1607.5,1032" style="fill:none;stroke:rgb(85,142,213)" clip-path="url(#clip138)" />
<clipPath id="clip139"><path d="M1597,1026 L1610,1026 L1610,1039 L1597,1039 L1597,1026 Z" /></clipPath>
<path d="M1601,1032 L1605,1032" style="fill:none;stroke:rgb(150,160,200)" clip-path="url(#clip139)" />
<clipPath id="clip140"><path d="M1617,912 L1992,912 L1992,1152 L1617,1152 Z M1619,1037 L1619,1064 L1732,1064 L1732,1037 Z M1619,1037 Z M1619,1037" /></clipPath>
<path d="M1745,1065 C1747.4453125,1008.3320313 1751.109375,980 1756,980" style="fill:none;stroke:rgb(85,142,213)" clip-path="url(#clip140)" />
<clipPath id="clip141"><path d="M1617,912 L1992,912 L1992,1152 L1617,1152 Z M1619,1037 L1619,1064 L1732,1064 L1732,1037 Z M1619,1037 Z M1619,1037" /></clipPath>
<path d="M1745,1065 C1747.4453125,1030.3320313 1751.109375,1013 1756,1013" style="fill:none;stroke:rgb(85,142,213)" clip-path="url(#clip141)" />
<clipPath id="clip142"><path d="M1617,912 L1992,912 L1992,1152 L1617,1152 Z M1619,1037 L1619,1064 L1732,1064 L1732,1037 Z M1619,1037 Z M1619,1037" /></clipPath>
<path d="M1745,1065 C1747.4453125,1052.3320313 1751.109375,1046 1756,1046" style="fill:none;stroke:rgb(85,142,213)" clip-path="url(#clip142)" />
<clipPath id="clip143"><path d="M1617,912 L1992,912 L1992,1152 L1617,1152 Z M1619,1037 L1619,1064 L1732,1064 L1732,1037 Z M1619,1037 Z M1619,1037" /></clipPath>
<path d="M1745,1065 C1747.4453125,1087 1751.109375,1098 1756,1098" style="fill:none;stroke:rgb(85,142,213)" clip-path="url(#clip143)" />
<clipPath id="clip144"><path d="M1617,912 L1992,912 L1992,1152 L1617,1152 Z M1619,1037 L1619,1064 L1732,1064 L1732,1037 Z M1619,1037 Z M1619,1037" /></clipPath>
<path d="M1745,1065 C1747.4453125,1121.6679688 1751.109375,1150 1756,1150" style="fill:none;stroke:rgb(85,142,213)" clip-path="url(#clip144)" />
<clipPath id="clip145"><path d="M1616,911 L1993,911 L1993,1153 L1616,1153 L1616,911 Z" /></clipPath>
<path d="M1732,1065 L1745,1065" style="fill:none;stroke:rgb(85,142,213)" clip-path="url(#clip145)" />
<clipPath id="clip146"><path d="M1616,1034 L1736,1034 L1736,1068 L1616,1068 L1616,1034 Z" /></clipPath>
<path d="M1619,1065 L1732,1065 Z M1619,1065" style="fill:none;stroke:rgb(85,142,213);stroke-width:3" clip-path="url(#clip146)" />
<text x="1630" y="1052" style="font:10px Open Sans">Conseqüències</text>
<clipPath id="clip147"><path d="M1734,1045 L1747,1045 L1747,1058 L1734,1058 L1734,1045 Z" /></clipPath>
<path d="M1744.5,1051 C1744.5,1048.515625 1742.484375,1046.5 1740,1046.5 C1737.515625,1046.5 1735.5,1048.515625 1735.5,1051 C1735.5,1053.484375 1737.515625,1055.5 1740,1055.5 C1742.484375,1055.5 1744.5,1053.484375 1744.5,1051 Z M1744.5,1051" style="fill:rgb(250,250,250);stroke:none" clip-path="url(#clip147)" />
<clipPath id="clip148"><path d="M1734,1045 L1747,1045 L1747,1058 L1734,1058 L1734,1045 Z" /></clipPath>
<path d="M1744.5,1051 C1744.5,1048.515625 1742.484375,1046.5 1740,1046.5 C1737.515625,1046.5 1735.5,1048.515625 1735.5,1051 C1735.5,1053.484375 1737.515625,1055.5 1740,1055.5 C1742.484375,1055.5 1744.5,1053.484375 1744.5,1051 Z M1744.5,1051" style="fill:none;stroke:rgb(85,142,213)" clip-path="url(#clip148)" />
<clipPath id="clip149"><path d="M1734,1045 L1747,1045 L1747,1058 L1734,1058 L1734,1045 Z" /></clipPath>
<path d="M1738,1051 L1742,1051" style="fill:none;stroke:rgb(150,160,200)" clip-path="url(#clip149)" />
<clipPath id="clip150"><path d="M1753,911 L1912,911 L1912,983 L1753,983 L1753,911 Z" /></clipPath>
<path d="M1756,980 L1908,980 Z M1756,980" style="fill:none;stroke:rgb(85,142,213);stroke-width:3" clip-path="url(#clip150)" />
<text x="1767" y="929" style="font:10px Open Sans">Traspàs de propietats</text>
<text x="1767" y="948" style="font:10px Open Sans">jueves i musulmanes</text>
<text x="1767" y="967" style="font:10px Open Sans">als cristians</text>
<clipPath id="clip151"><path d="M1753,982 L1993,982 L1993,1016 L1753,1016 L1753,982 Z" /></clipPath>
<path d="M1756,1013 L1989,1013 Z M1756,1013" style="fill:none;stroke:rgb(85,142,213);stroke-width:3" clip-path="url(#clip151)" />
<text x="1767" y="1000" style="font:10px Open Sans">Disminució de la producció agrícola</text>
<clipPath id="clip152"><path d="M1753,1015 L1942,1015 L1942,1049 L1753,1049 L1753,1015 Z" /></clipPath>
<path d="M1756,1046 L1938,1046 Z M1756,1046" style="fill:none;stroke:rgb(85,142,213);stroke-width:3" clip-path="url(#clip152)" />
<text x="1767" y="1033" style="font:10px Open Sans">Desaparició de molts oficis</text>
<clipPath id="clip153"><path d="M1753,1048 L1910,1048 L1910,1101 L1753,1101 L1753,1048 Z" /></clipPath>
<path d="M1756,1098 L1906,1098 Z M1756,1098" style="fill:none;stroke:rgb(85,142,213);stroke-width:3" clip-path="url(#clip153)" />
<text x="1767" y="1066" style="font:10px Open Sans">Persecucions i càstigs</text>
<text x="1767" y="1085" style="font:10px Open Sans">per motiu religiós</text>
<clipPath id="clip154"><path d="M1753,1100 L1883,1100 L1883,1153 L1753,1153 L1753,1100 Z" /></clipPath>
<path d="M1756,1150 L1879,1150 Z M1756,1150" style="fill:none;stroke:rgb(85,142,213);stroke-width:3" clip-path="url(#clip154)" />
<text x="1767" y="1118" style="font:10px Open Sans">Endarreriment</text>
<text x="1767" y="1137" style="font:10px Open Sans">cultural i científic</text>
<clipPath id="clip155"><path d="M15,15 L790,15 L790,760 L15,760 Z M608,310 C605.2382813,310 603,312.2382813 603,315 L603,348 C603,350.7617188 605.2382813,353 608,353 L783,353 C785.7617188,353 788,350.7617188 788,348 L788,315 C788,312.2382813 785.7617188,310 783,310 Z M608,310 Z M608,310" /></clipPath>
<path d="M590,332.03125 C587.7773438,332.0117188 584.4453125,332 580,332" style="fill:none;stroke:rgb(85,142,213)" clip-path="url(#clip155)" />
<clipPath id="clip156"><path d="M14,14 L791,14 L791,761 L14,761 L14,14 Z" /></clipPath>
<path d="M603,331.9648438 L590,332.03125" style="fill:none;stroke:rgb(85,142,213)" clip-path="url(#clip156)" />
<clipPath id="clip157"><path d="M601,308 L791,308 L791,356 L601,356 L601,308 Z" /></clipPath>
<path d="M608,310 C605.2382813,310 603,312.2382813 603,315 L603,348 C603,350.7617188 605.2382813,353 608,353 L783,353 C785.7617188,353 788,350.7617188 788,348 L788,315 C788,312.2382813 785.7617188,310 783,310 Z M608,310" style="fill:rgb(220,230,242);stroke:none" clip-path="url(#clip157)" />
<clipPath id="clip158"><path d="M601,308 L791,308 L791,356 L601,356 L601,308 Z" /></clipPath>
<path d="M608,310 C605.2382813,310 603,312.2382813 603,315 L603,348 C603,350.7617188 605.2382813,353 608,353 L783,353 C785.7617188,353 788,350.7617188 788,348 L788,315 C788,312.2382813 785.7617188,310 783,310 Z M608,310" style="fill:none;stroke:rgb(85,142,213);stroke-width:2" clip-path="url(#clip158)" />
<text x="618" y="334" style="font:13px Open Sans">Grans Exploracions</text>
<clipPath id="clip159"><path d="M590,326 L603,326 L603,339 L590,339 L590,326 Z" /></clipPath>
<path d="M600.5,332 C600.5,329.515625 598.484375,327.5 596,327.5 C593.515625,327.5 591.5,329.515625 591.5,332 C591.5,334.484375 593.515625,336.5 596,336.5 C598.484375,336.5 600.5,334.484375 600.5,332 Z M600.5,332" style="fill:rgb(250,250,250);stroke:none" clip-path="url(#clip159)" />
<clipPath id="clip160"><path d="M590,326 L603,326 L603,339 L590,339 L590,326 Z" /></clipPath>
<path d="M600.5,332 C600.5,329.515625 598.484375,327.5 596,327.5 C593.515625,327.5 591.5,329.515625 591.5,332 C591.5,334.484375 593.515625,336.5 596,336.5 C598.484375,336.5 600.5,334.484375 600.5,332 Z M600.5,332" style="fill:none;stroke:rgb(85,142,213)" clip-path="url(#clip160)" />
<clipPath id="clip161"><path d="M590,326 L603,326 L603,339 L590,339 L590,326 Z" /></clipPath>
<path d="M594,332 L598,332" style="fill:none;stroke:rgb(150,160,200)" clip-path="url(#clip161)" />
<clipPath id="clip162"><path d="M15,15 L583,15 L583,760 L15,760 Z M507,304 L507,331 L580,331 L580,304 Z M507,304 Z M507,304" /></clipPath>
<path d="M494,332 C491.5546875,153.3320313 487.890625,64 483,64" style="fill:none;stroke:rgb(85,142,213)" clip-path="url(#clip162)" />
<clipPath id="clip163"><path d="M15,15 L583,15 L583,760 L15,760 Z M507,304 L507,331 L580,331 L580,304 Z M507,304 Z M507,304" /></clipPath>
<path d="M494,332 C491.5546875,188 487.890625,116 483,116" style="fill:none;stroke:rgb(85,142,213)" clip-path="url(#clip163)" />
<clipPath id="clip164"><path d="M15,15 L583,15 L583,760 L15,760 Z M507,304 L507,331 L580,331 L580,304 Z M507,304 Z M507,304" /></clipPath>
<path d="M494,332 C491.5546875,262 487.890625,227 483,227" style="fill:none;stroke:rgb(85,142,213)" clip-path="url(#clip164)" />
<clipPath id="clip165"><path d="M15,15 L583,15 L583,760 L15,760 Z M507,304 L507,331 L580,331 L580,304 Z M507,304 Z M507,304" /></clipPath>
<path d="M494,332 C491.5546875,364 487.890625,380 483,380" style="fill:none;stroke:rgb(85,142,213)" clip-path="url(#clip165)" />
<clipPath id="clip166"><path d="M15,15 L583,15 L583,760 L15,760 Z M507,304 L507,331 L580,331 L580,304 Z M507,304 Z M507,304" /></clipPath>
<path d="M494,332 C491.5546875,510.6679688 487.890625,600 483,600" style="fill:none;stroke:rgb(85,142,213)" clip-path="url(#clip166)" />
<clipPath id="clip167"><path d="M14,14 L584,14 L584,761 L14,761 L14,14 Z" /></clipPath>
<path d="M507,332 L494,332" style="fill:none;stroke:rgb(85,142,213)" clip-path="url(#clip167)" />
<clipPath id="clip168"><path d="M504,301 L584,301 L584,335 L504,335 L504,301 Z" /></clipPath>
<path d="M507,332 L580,332 Z M507,332" style="fill:none;stroke:rgb(85,142,213);stroke-width:3" clip-path="url(#clip168)" />
<text x="519" y="320" style="font:10px Open Sans">Segle XII</text>
<clipPath id="clip169"><path d="M493,312 L506,312 L506,325 L493,325 L493,312 Z" /></clipPath>
<path d="M503.5,318 C503.5,315.515625 501.484375,313.5 499,313.5 C496.515625,313.5 494.5,315.515625 494.5,318 C494.5,320.484375 496.515625,322.5 499,322.5 C501.484375,322.5 503.5,320.484375 503.5,318 Z M503.5,318" style="fill:rgb(250,250,250);stroke:none" clip-path="url(#clip169)" />
<clipPath id="clip170"><path d="M493,312 L506,312 L506,325 L493,325 L493,312 Z" /></clipPath>
<path d="M503.5,318 C503.5,315.515625 501.484375,313.5 499,313.5 C496.515625,313.5 494.5,315.515625 494.5,318 C494.5,320.484375 496.515625,322.5 499,322.5 C501.484375,322.5 503.5,320.484375 503.5,318 Z M503.5,318" style="fill:none;stroke:rgb(85,142,213)" clip-path="url(#clip170)" />
<clipPath id="clip171"><path d="M493,312 L506,312 L506,325 L493,325 L493,312 Z" /></clipPath>
<path d="M497,318 L501,318" style="fill:none;stroke:rgb(150,160,200)" clip-path="url(#clip171)" />
<clipPath id="clip172"><path d="M357,14 L487,14 L487,67 L357,67 L357,14 Z" /></clipPath>
<path d="M360,64 L483,64 Z M360,64" style="fill:none;stroke:rgb(85,142,213);stroke-width:3" clip-path="url(#clip172)" />
<text x="372" y="33" style="font:10px Open Sans">Rutes comercials</text>
<text x="372" y="52" style="font:10px Open Sans">cap a l'Orient</text>
<clipPath id="clip173"><path d="M357,66 L487,66 L487,119 L357,119 L357,66 Z" /></clipPath>
<path d="M360,116 L483,116 Z M360,116" style="fill:none;stroke:rgb(85,142,213);stroke-width:3" clip-path="url(#clip173)" />
<text x="372" y="85" style="font:10px Open Sans">Rutes marítimes</text>
<text x="372" y="104" style="font:10px Open Sans">per arribar a Àsia</text>
<clipPath id="clip174"><path d="M68,119 L486,119 L486,288 L68,288 Z M366,180 L366,226 L483,226 L483,180 Z M366,180 Z M366,180" /></clipPath>
<path d="M353,227 C350.5546875,187.6679688 346.890625,168 342,168" style="fill:none;stroke:rgb(85,142,213)" clip-path="url(#clip174)" />
<clipPath id="clip175"><path d="M68,119 L486,119 L486,288 L68,288 Z M366,180 L366,226 L483,226 L483,180 Z M366,180 Z M366,180" /></clipPath>
<path d="M353,227 C350.5546875,209.6679688 346.890625,201 342,201" style="fill:none;stroke:rgb(85,142,213)" clip-path="url(#clip175)" />
<clipPath id="clip176"><path d="M68,119 L486,119 L486,288 L68,288 Z M366,180 L366,226 L483,226 L483,180 Z M366,180 Z M366,180" /></clipPath>
<path d="M353,227 C350.5546875,231.6679688 346.890625,234 342,234" style="fill:none;stroke:rgb(85,142,213)" clip-path="url(#clip176)" />
<clipPath id="clip177"><path d="M68,119 L486,119 L486,288 L68,288 Z M366,180 L366,226 L483,226 L483,180 Z M366,180 Z M366,180" /></clipPath>
<path d="M353,227 C350.5546875,266.3320313 346.890625,286 342,286" style="fill:none;stroke:rgb(85,142,213)" clip-path="url(#clip177)" />
<clipPath id="clip178"><path d="M67,118 L487,118 L487,289 L67,289 L67,118 Z" /></clipPath>
<path d="M366,227 L353,227" style="fill:none;stroke:rgb(85,142,213)" clip-path="url(#clip178)" />
<clipPath id="clip179"><path d="M363,177 L487,177 L487,230 L363,230 L363,177 Z" /></clipPath>
<path d="M366,227 L483,227 Z M366,227" style="fill:none;stroke:rgb(85,142,213);stroke-width:3" clip-path="url(#clip179)" />
<text x="378" y="196" style="font:10px Open Sans">Avanços tècnics</text>
<text x="378" y="215" style="font:10px Open Sans">i científics</text>
<clipPath id="clip180"><path d="M352,197 L365,197 L365,210 L352,210 L352,197 Z" /></clipPath>
<path d="M362.5,203 C362.5,200.515625 360.484375,198.5 358,198.5 C355.515625,198.5 353.5,200.515625 353.5,203 C353.5,205.484375 355.515625,207.5 358,207.5 C360.484375,207.5 362.5,205.484375 362.5,203 Z M362.5,203" style="fill:rgb(250,250,250);stroke:none" clip-path="url(#clip180)" />
<clipPath id="clip181"><path d="M352,197 L365,197 L365,210 L352,210 L352,197 Z" /></clipPath>
<path d="M362.5,203 C362.5,200.515625 360.484375,198.5 358,198.5 C355.515625,198.5 353.5,200.515625 353.5,203 C353.5,205.484375 355.515625,207.5 358,207.5 C360.484375,207.5 362.5,205.484375 362.5,203 Z M362.5,203" style="fill:none;stroke:rgb(85,142,213)" clip-path="url(#clip181)" />
<clipPath id="clip182"><path d="M352,197 L365,197 L365,210 L352,210 L352,197 Z" /></clipPath>
<path d="M356,203 L360,203" style="fill:none;stroke:rgb(150,160,200)" clip-path="url(#clip182)" />
<clipPath id="clip183"><path d="M115,119 L345,119 L345,170 L115,170 Z M261,140 L261,167 L342,167 L342,140 Z M261,140 Z M261,140" /></clipPath>
<path d="M248,168 C245.5546875,168 241.890625,168 237,168" style="fill:none;stroke:rgb(85,142,213)" clip-path="url(#clip183)" />
<clipPath id="clip184"><path d="M114,118 L346,118 L346,171 L114,171 L114,118 Z" /></clipPath>
<path d="M261,168 L248,168" style="fill:none;stroke:rgb(85,142,213)" clip-path="url(#clip184)" />
<clipPath id="clip185"><path d="M258,137 L346,137 L346,171 L258,171 L258,137 Z" /></clipPath>
<path d="M261,168 L342,168 Z M261,168" style="fill:none;stroke:rgb(85,142,213);stroke-width:3" clip-path="url(#clip185)" />
<text x="273" y="156" style="font:10px Open Sans">Caravel·la</text>
<clipPath id="clip186"><path d="M247,148 L260,148 L260,161 L247,161 L247,148 Z" /></clipPath>
<path d="M257.5,154 C257.5,151.515625 255.484375,149.5 253,149.5 C250.515625,149.5 248.5,151.515625 248.5,154 C248.5,156.484375 250.515625,158.5 253,158.5 C255.484375,158.5 257.5,156.484375 257.5,154 Z M257.5,154" style="fill:rgb(250,250,250);stroke:none" clip-path="url(#clip186)" />
<clipPath id="clip187"><path d="M247,148 L260,148 L260,161 L247,161 L247,148 Z" /></clipPath>
<path d="M257.5,154 C257.5,151.515625 255.484375,149.5 253,149.5 C250.515625,149.5 248.5,151.515625 248.5,154 C248.5,156.484375 250.515625,158.5 253,158.5 C255.484375,158.5 257.5,156.484375 257.5,154 Z M257.5,154" style="fill:none;stroke:rgb(85,142,213)" clip-path="url(#clip187)" />
<clipPath id="clip188"><path d="M247,148 L260,148 L260,161 L247,161 L247,148 Z" /></clipPath>
<path d="M251,154 L255,154" style="fill:none;stroke:rgb(150,160,200)" clip-path="url(#clip188)" />
<clipPath id="clip189"><path d="M114,118 L241,118 L241,171 L114,171 L114,118 Z" /></clipPath>
<path d="M117,168 L237,168 Z M117,168" style="fill:none;stroke:rgb(85,142,213);stroke-width:3" clip-path="url(#clip189)" />
<text x="129" y="137" style="font:10px Open Sans">Vaixell de vela</text>
<text x="129" y="156" style="font:10px Open Sans">lleuger , curt i alt</text>
<clipPath id="clip190"><path d="M78,171 L345,171 L345,203 L78,203 Z M269,173 L269,200 L342,200 L342,173 Z M269,173 Z M269,173" /></clipPath>
<path d="M256,201 C253.5546875,201 249.890625,201 245,201" style="fill:none;stroke:rgb(85,142,213)" clip-path="url(#clip190)" />
<clipPath id="clip191"><path d="M77,170 L346,170 L346,204 L77,204 L77,170 Z" /></clipPath>
<path d="M269,201 L256,201" style="fill:none;stroke:rgb(85,142,213)" clip-path="url(#clip191)" />
<clipPath id="clip192"><path d="M266,170 L346,170 L346,204 L266,204 L266,170 Z" /></clipPath>
<path d="M269,201 L342,201 Z M269,201" style="fill:none;stroke:rgb(85,142,213);stroke-width:3" clip-path="url(#clip192)" />
<text x="281" y="189" style="font:10px Open Sans">Brúixola</text>
<clipPath id="clip193"><path d="M255,181 L268,181 L268,194 L255,194 L255,181 Z" /></clipPath>
<path d="M265.5,187 C265.5,184.515625 263.484375,182.5 261,182.5 C258.515625,182.5 256.5,184.515625 256.5,187 C256.5,189.484375 258.515625,191.5 261,191.5 C263.484375,191.5 265.5,189.484375 265.5,187 Z M265.5,187" style="fill:rgb(250,250,250);stroke:none" clip-path="url(#clip193)" />
<clipPath id="clip194"><path d="M255,181 L268,181 L268,194 L255,194 L255,181 Z" /></clipPath>
<path d="M265.5,187 C265.5,184.515625 263.484375,182.5 261,182.5 C258.515625,182.5 256.5,184.515625 256.5,187 C256.5,189.484375 258.515625,191.5 261,191.5 C263.484375,191.5 265.5,189.484375 265.5,187 Z M265.5,187" style="fill:none;stroke:rgb(85,142,213)" clip-path="url(#clip194)" />
<clipPath id="clip195"><path d="M255,181 L268,181 L268,194 L255,194 L255,181 Z" /></clipPath>
<path d="M259,187 L263,187" style="fill:none;stroke:rgb(150,160,200)" clip-path="url(#clip195)" />
<clipPath id="clip196"><path d="M77,170 L249,170 L249,204 L77,204 L77,170 Z" /></clipPath>
<path d="M80,201 L245,201 Z M80,201" style="fill:none;stroke:rgb(85,142,213);stroke-width:3" clip-path="url(#clip196)" />
<text x="92" y="189" style="font:10px Open Sans">Instrument d'orientació</text>
<clipPath id="clip197"><path d="M68,204 L345,204 L345,236 L68,236 Z M266,206 L266,233 L342,233 L342,206 Z M266,206 Z M266,206" /></clipPath>
<path d="M253,234 C250.5546875,234 246.890625,234 242,234" style="fill:none;stroke:rgb(85,142,213)" clip-path="url(#clip197)" />
<clipPath id="clip198"><path d="M67,203 L346,203 L346,237 L67,237 L67,203 Z" /></clipPath>
<path d="M266,234 L253,234" style="fill:none;stroke:rgb(85,142,213)" clip-path="url(#clip198)" />
<clipPath id="clip199"><path d="M263,203 L346,203 L346,237 L263,237 L263,203 Z" /></clipPath>
<path d="M266,234 L342,234 Z M266,234" style="fill:none;stroke:rgb(85,142,213);stroke-width:3" clip-path="url(#clip199)" />
<text x="278" y="222" style="font:10px Open Sans">Astrolabi</text>
<clipPath id="clip200"><path d="M252,214 L265,214 L265,227 L252,227 L252,214 Z" /></clipPath>
<path d="M262.5,220 C262.5,217.515625 260.484375,215.5 258,215.5 C255.515625,215.5 253.5,217.515625 253.5,220 C253.5,222.484375 255.515625,224.5 258,224.5 C260.484375,224.5 262.5,222.484375 262.5,220 Z M262.5,220" style="fill:rgb(250,250,250);stroke:none" clip-path="url(#clip200)" />
<clipPath id="clip201"><path d="M252,214 L265,214 L265,227 L252,227 L252,214 Z" /></clipPath>
<path d="M262.5,220 C262.5,217.515625 260.484375,215.5 258,215.5 C255.515625,215.5 253.5,217.515625 253.5,220 C253.5,222.484375 255.515625,224.5 258,224.5 C260.484375,224.5 262.5,222.484375 262.5,220 Z M262.5,220" style="fill:none;stroke:rgb(85,142,213)" clip-path="url(#clip201)" />
<clipPath id="clip202"><path d="M252,214 L265,214 L265,227 L252,227 L252,214 Z" /></clipPath>
<path d="M256,220 L260,220" style="fill:none;stroke:rgb(150,160,200)" clip-path="url(#clip202)" />
<clipPath id="clip203"><path d="M67,203 L246,203 L246,237 L67,237 L67,203 Z" /></clipPath>
<path d="M70,234 L242,234 Z M70,234" style="fill:none;stroke:rgb(85,142,213);stroke-width:3" clip-path="url(#clip203)" />
<text x="82" y="222" style="font:10px Open Sans">Instrument de navegació</text>
<clipPath id="clip204"><path d="M91,237 L345,237 L345,288 L91,288 Z M261,258 L261,285 L342,285 L342,258 Z M261,258 Z M261,258" /></clipPath>
<path d="M248,286 C245.5546875,286 241.890625,286 237,286" style="fill:none;stroke:rgb(85,142,213)" clip-path="url(#clip204)" />
<clipPath id="clip205"><path d="M90,236 L346,236 L346,289 L90,289 L90,236 Z" /></clipPath>
<path d="M261,286 L248,286" style="fill:none;stroke:rgb(85,142,213)" clip-path="url(#clip205)" />
<clipPath id="clip206"><path d="M258,255 L346,255 L346,289 L258,289 L258,255 Z" /></clipPath>
<path d="M261,286 L342,286 Z M261,286" style="fill:none;stroke:rgb(85,142,213);stroke-width:3" clip-path="url(#clip206)" />
<text x="273" y="274" style="font:10px Open Sans">Portolans</text>
<clipPath id="clip207"><path d="M247,266 L260,266 L260,279 L247,279 L247,266 Z" /></clipPath>
<path d="M257.5,272 C257.5,269.515625 255.484375,267.5 253,267.5 C250.515625,267.5 248.5,269.515625 248.5,272 C248.5,274.484375 250.515625,276.5 253,276.5 C255.484375,276.5 257.5,274.484375 257.5,272 Z M257.5,272" style="fill:rgb(250,250,250);stroke:none" clip-path="url(#clip207)" />
<clipPath id="clip208"><path d="M247,266 L260,266 L260,279 L247,279 L247,266 Z" /></clipPath>
<path d="M257.5,272 C257.5,269.515625 255.484375,267.5 253,267.5 C250.515625,267.5 248.5,269.515625 248.5,272 C248.5,274.484375 250.515625,276.5 253,276.5 C255.484375,276.5 257.5,274.484375 257.5,272 Z M257.5,272" style="fill:none;stroke:rgb(85,142,213)" clip-path="url(#clip208)" />
<clipPath id="clip209"><path d="M247,266 L260,266 L260,279 L247,279 L247,266 Z" /></clipPath>
<path d="M251,272 L255,272" style="fill:none;stroke:rgb(150,160,200)" clip-path="url(#clip209)" />
<clipPath id="clip210"><path d="M90,236 L241,236 L241,289 L90,289 L90,236 Z" /></clipPath>
<path d="M93,286 L237,286 Z M93,286" style="fill:none;stroke:rgb(85,142,213);stroke-width:3" clip-path="url(#clip210)" />
<text x="105" y="255" style="font:10px Open Sans">Mapes de navegació</text>
<text x="105" y="274" style="font:10px Open Sans">traçats a mà</text>
<clipPath id="clip211"><path d="M185,289 L486,289 L486,444 L185,444 Z M332,352 L332,379 L483,379 L483,352 Z M332,352 Z M332,352" /></clipPath>
<path d="M319,380 C316.5546875,339.3320313 312.890625,319 308,319" style="fill:none;stroke:rgb(85,142,213)" clip-path="url(#clip211)" />
<clipPath id="clip212"><path d="M185,289 L486,289 L486,444 L185,444 Z M332,352 L332,379 L483,379 L483,352 Z M332,352 Z M332,352" /></clipPath>
<path d="M319,380 C316.5546875,386.6679688 312.890625,390 308,390" style="fill:none;stroke:rgb(85,142,213)" clip-path="url(#clip212)" />
<clipPath id="clip213"><path d="M185,289 L486,289 L486,444 L185,444 Z M332,352 L332,379 L483,379 L483,352 Z M332,352 Z M332,352" /></clipPath>
<path d="M319,380 C316.5546875,421.3320313 312.890625,442 308,442" style="fill:none;stroke:rgb(85,142,213)" clip-path="url(#clip213)" />
<clipPath id="clip214"><path d="M184,288 L487,288 L487,445 L184,445 L184,288 Z" /></clipPath>
<path d="M332,380 L319,380" style="fill:none;stroke:rgb(85,142,213)" clip-path="url(#clip214)" />
<clipPath id="clip215"><path d="M329,349 L487,349 L487,383 L329,383 L329,349 Z" /></clipPath>
<path d="M332,380 L483,380 Z M332,380" style="fill:none;stroke:rgb(85,142,213);stroke-width:3" clip-path="url(#clip215)" />
<text x="344" y="368" style="font:10px Open Sans">Grans descobriments</text>
<clipPath id="clip216"><path d="M318,360 L331,360 L331,373 L318,373 L318,360 Z" /></clipPath>
<path d="M328.5,366 C328.5,363.515625 326.484375,361.5 324,361.5 C321.515625,361.5 319.5,363.515625 319.5,366 C319.5,368.484375 321.515625,370.5 324,370.5 C326.484375,370.5 328.5,368.484375 328.5,366 Z M328.5,366" style="fill:rgb(250,250,250);stroke:none" clip-path="url(#clip216)" />
<clipPath id="clip217"><path d="M318,360 L331,360 L331,373 L318,373 L318,360 Z" /></clipPath>
<path d="M328.5,366 C328.5,363.515625 326.484375,361.5 324,361.5 C321.515625,361.5 319.5,363.515625 319.5,366 C319.5,368.484375 321.515625,370.5 324,370.5 C326.484375,370.5 328.5,368.484375 328.5,366 Z M328.5,366" style="fill:none;stroke:rgb(85,142,213)" clip-path="url(#clip217)" />
<clipPath id="clip218"><path d="M318,360 L331,360 L331,373 L318,373 L318,360 Z" /></clipPath>
<path d="M322,366 L326,366" style="fill:none;stroke:rgb(150,160,200)" clip-path="url(#clip218)" />
<clipPath id="clip219"><path d="M192,288 L312,288 L312,322 L192,322 L192,288 Z" /></clipPath>
<path d="M195,319 L308,319 Z M195,319" style="fill:none;stroke:rgb(85,142,213);stroke-width:3" clip-path="url(#clip219)" />
<text x="207" y="307" style="font:10px Open Sans">Amèrica - 1492</text>
<clipPath id="clip220"><path d="M184,321 L312,321 L312,393 L184,393 L184,321 Z" /></clipPath>
<path d="M187,390 L308,390 Z M187,390" style="fill:none;stroke:rgb(85,142,213);stroke-width:3" clip-path="url(#clip220)" />
<text x="199" y="340" style="font:10px Open Sans">Ruta fins l'Índia</text>
<text x="199" y="359" style="font:10px Open Sans">vorejant la costa</text>
<text x="199" y="378" style="font:10px Open Sans">africana - 1498</text>
<clipPath id="clip221"><path d="M199,392 L312,392 L312,445 L199,445 L199,392 Z" /></clipPath>
<path d="M202,442 L308,442 Z M202,442" style="fill:none;stroke:rgb(85,142,213);stroke-width:3" clip-path="url(#clip221)" />
<text x="214" y="411" style="font:10px Open Sans">Primera volta</text>
<text x="214" y="430" style="font:10px Open Sans">al món - 1522</text>
<clipPath id="clip222"><path d="M15,445 L486,445 L486,760 L15,760 Z M412,572 L412,599 L483,599 L483,572 Z M412,572 Z M412,572" /></clipPath>
<path d="M399,600 C396.5546875,516.6679688 392.890625,475 388,475" style="fill:none;stroke:rgb(85,142,213)" clip-path="url(#clip222)" />
<clipPath id="clip223"><path d="M15,445 L486,445 L486,760 L15,760 Z M412,572 L412,599 L483,599 L483,572 Z M412,572 Z M412,572" /></clipPath>
<path d="M399,600 C396.5546875,560.6679688 392.890625,541 388,541" style="fill:none;stroke:rgb(85,142,213)" clip-path="url(#clip223)" />
<clipPath id="clip224"><path d="M15,445 L486,445 L486,760 L15,760 Z M412,572 L412,599 L483,599 L483,572 Z M412,572 Z M412,572" /></clipPath>
<path d="M399,600 C396.5546875,622 392.890625,633 388,633" style="fill:none;stroke:rgb(85,142,213)" clip-path="url(#clip224)" />
<clipPath id="clip225"><path d="M15,445 L486,445 L486,760 L15,760 Z M412,572 L412,599 L483,599 L483,572 Z M412,572 Z M412,572" /></clipPath>
<path d="M399,600 C396.5546875,683.3320313 392.890625,725 388,725" style="fill:none;stroke:rgb(85,142,213)" clip-path="url(#clip225)" />
<clipPath id="clip226"><path d="M14,444 L487,444 L487,761 L14,761 L14,444 Z" /></clipPath>
<path d="M412,600 L399,600" style="fill:none;stroke:rgb(85,142,213)" clip-path="url(#clip226)" />
<clipPath id="clip227"><path d="M409,569 L487,569 L487,603 L409,603 L409,569 Z" /></clipPath>
<path d="M412,600 L483,600 Z M412,600" style="fill:none;stroke:rgb(85,142,213);stroke-width:3" clip-path="url(#clip227)" />
<text x="424" y="588" style="font:10px Open Sans">Amèrica</text>
<clipPath id="clip228"><path d="M398,580 L411,580 L411,593 L398,593 L398,580 Z" /></clipPath>
<path d="M408.5,586 C408.5,583.515625 406.484375,581.5 404,581.5 C401.515625,581.5 399.5,583.515625 399.5,586 C399.5,588.484375 401.515625,590.5 404,590.5 C406.484375,590.5 408.5,588.484375 408.5,586 Z M408.5,586" style="fill:rgb(250,250,250);stroke:none" clip-path="url(#clip228)" />
<clipPath id="clip229"><path d="M398,580 L411,580 L411,593 L398,593 L398,580 Z" /></clipPath>
<path d="M408.5,586 C408.5,583.515625 406.484375,581.5 404,581.5 C401.515625,581.5 399.5,583.515625 399.5,586 C399.5,588.484375 401.515625,590.5 404,590.5 C406.484375,590.5 408.5,588.484375 408.5,586 Z M408.5,586" style="fill:none;stroke:rgb(85,142,213)" clip-path="url(#clip229)" />
<clipPath id="clip230"><path d="M398,580 L411,580 L411,593 L398,593 L398,580 Z" /></clipPath>
<path d="M402,586 L406,586" style="fill:none;stroke:rgb(150,160,200)" clip-path="url(#clip230)" />
<clipPath id="clip231"><path d="M221,444 L392,444 L392,478 L221,478 L221,444 Z" /></clipPath>
<path d="M224,475 L388,475 Z M224,475" style="fill:none;stroke:rgb(85,142,213);stroke-width:3" clip-path="url(#clip231)" />
<text x="236" y="463" style="font:10px Open Sans">Colom va arribar - 1492</text>
<clipPath id="clip232"><path d="M15,478 L391,478 L391,576 L15,576 Z M240,513 L240,540 L388,540 L388,513 Z M240,513 Z M240,513" /></clipPath>
<path d="M227,541 C224.5546875,519 220.890625,508 216,508" style="fill:none;stroke:rgb(85,142,213)" clip-path="url(#clip232)" />
<clipPath id="clip233"><path d="M15,478 L391,478 L391,576 L15,576 Z M240,513 L240,540 L388,540 L388,513 Z M240,513 Z M240,513" /></clipPath>
<path d="M227,541 C224.5546875,541 220.890625,541 216,541" style="fill:none;stroke:rgb(85,142,213)" clip-path="url(#clip233)" />
<clipPath id="clip234"><path d="M15,478 L391,478 L391,576 L15,576 Z M240,513 L240,540 L388,540 L388,513 Z M240,513 Z M240,513" /></clipPath>
<path d="M227,541 C224.5546875,563 220.890625,574 216,574" style="fill:none;stroke:rgb(85,142,213)" clip-path="url(#clip234)" />
<clipPath id="clip235"><path d="M14,477 L392,477 L392,577 L14,577 L14,477 Z" /></clipPath>
<path d="M240,541 L227,541" style="fill:none;stroke:rgb(85,142,213)" clip-path="url(#clip235)" />
<clipPath id="clip236"><path d="M237,510 L392,510 L392,544 L237,544 L237,510 Z" /></clipPath>
<path d="M240,541 L388,541 Z M240,541" style="fill:none;stroke:rgb(85,142,213);stroke-width:3" clip-path="url(#clip236)" />
<text x="252" y="529" style="font:10px Open Sans">Pobles precolombins</text>
<clipPath id="clip237"><path d="M226,521 L239,521 L239,534 L226,534 L226,521 Z" /></clipPath>
<path d="M236.5,527 C236.5,524.515625 234.484375,522.5 232,522.5 C229.515625,522.5 227.5,524.515625 227.5,527 C227.5,529.484375 229.515625,531.5 232,531.5 C234.484375,531.5 236.5,529.484375 236.5,527 Z M236.5,527" style="fill:rgb(250,250,250);stroke:none" clip-path="url(#clip237)" />
<clipPath id="clip238"><path d="M226,521 L239,521 L239,534 L226,534 L226,521 Z" /></clipPath>
<path d="M236.5,527 C236.5,524.515625 234.484375,522.5 232,522.5 C229.515625,522.5 227.5,524.515625 227.5,527 C227.5,529.484375 229.515625,531.5 232,531.5 C234.484375,531.5 236.5,529.484375 236.5,527 Z M236.5,527" style="fill:none;stroke:rgb(85,142,213)" clip-path="url(#clip238)" />
<clipPath id="clip239"><path d="M226,521 L239,521 L239,534 L226,534 L226,521 Z" /></clipPath>
<path d="M230,527 L234,527" style="fill:none;stroke:rgb(150,160,200)" clip-path="url(#clip239)" />
<clipPath id="clip240"><path d="M54,478 L219,478 L219,510 L54,510 Z M158,480 L158,507 L216,507 L216,480 Z M158,480 Z M158,480" /></clipPath>
<path d="M145,508 C142.5546875,508 138.890625,508 134,508" style="fill:none;stroke:rgb(85,142,213)" clip-path="url(#clip240)" />
<clipPath id="clip241"><path d="M53,477 L220,477 L220,511 L53,511 L53,477 Z" /></clipPath>
<path d="M158,508 L145,508" style="fill:none;stroke:rgb(85,142,213)" clip-path="url(#clip241)" />
<clipPath id="clip242"><path d="M155,477 L220,477 L220,511 L155,511 L155,477 Z" /></clipPath>
<path d="M158,508 L216,508 Z M158,508" style="fill:none;stroke:rgb(85,142,213);stroke-width:3" clip-path="url(#clip242)" />
<text x="170" y="496" style="font:10px Open Sans">Mèxic</text>
<clipPath id="clip243"><path d="M144,488 L157,488 L157,501 L144,501 L144,488 Z" /></clipPath>
<path d="M154.5,494 C154.5,491.515625 152.484375,489.5 150,489.5 C147.515625,489.5 145.5,491.515625 145.5,494 C145.5,496.484375 147.515625,498.5 150,498.5 C152.484375,498.5 154.5,496.484375 154.5,494 Z M154.5,494" style="fill:rgb(250,250,250);stroke:none" clip-path="url(#clip243)" />
<clipPath id="clip244"><path d="M144,488 L157,488 L157,501 L144,501 L144,488 Z" /></clipPath>
<path d="M154.5,494 C154.5,491.515625 152.484375,489.5 150,489.5 C147.515625,489.5 145.5,491.515625 145.5,494 C145.5,496.484375 147.515625,498.5 150,498.5 C152.484375,498.5 154.5,496.484375 154.5,494 Z M154.5,494" style="fill:none;stroke:rgb(85,142,213)" clip-path="url(#clip244)" />
<clipPath id="clip245"><path d="M144,488 L157,488 L157,501 L144,501 L144,488 Z" /></clipPath>
<path d="M148,494 L152,494" style="fill:none;stroke:rgb(150,160,200)" clip-path="url(#clip245)" />
<clipPath id="clip246"><path d="M53,477 L138,477 L138,511 L53,511 L53,477 Z" /></clipPath>
<path d="M56,508 L134,508 Z M56,508" style="fill:none;stroke:rgb(85,142,213);stroke-width:3" clip-path="url(#clip246)" />
<text x="68" y="496" style="font:10px Open Sans">Asteques</text>
<clipPath id="clip247"><path d="M75,511 L219,511 L219,543 L75,543 Z M165,513 L165,540 L216,540 L216,513 Z M165,513 Z M165,513" /></clipPath>
<path d="M152,541 C149.5546875,541 145.890625,541 141,541" style="fill:none;stroke:rgb(85,142,213)" clip-path="url(#clip247)" />
<clipPath id="clip248"><path d="M74,510 L220,510 L220,544 L74,544 L74,510 Z" /></clipPath>
<path d="M165,541 L152,541" style="fill:none;stroke:rgb(85,142,213)" clip-path="url(#clip248)" />
<clipPath id="clip249"><path d="M162,510 L220,510 L220,544 L162,544 L162,510 Z" /></clipPath>
<path d="M165,541 L216,541 Z M165,541" style="fill:none;stroke:rgb(85,142,213);stroke-width:3" clip-path="url(#clip249)" />
<text x="177" y="529" style="font:10px Open Sans">Perú</text>
<clipPath id="clip250"><path d="M151,521 L164,521 L164,534 L151,534 L151,521 Z" /></clipPath>
<path d="M161.5,527 C161.5,524.515625 159.484375,522.5 157,522.5 C154.515625,522.5 152.5,524.515625 152.5,527 C152.5,529.484375 154.515625,531.5 157,531.5 C159.484375,531.5 161.5,529.484375 161.5,527 Z M161.5,527" style="fill:rgb(250,250,250);stroke:none" clip-path="url(#clip250)" />
<clipPath id="clip251"><path d="M151,521 L164,521 L164,534 L151,534 L151,521 Z" /></clipPath>
<path d="M161.5,527 C161.5,524.515625 159.484375,522.5 157,522.5 C154.515625,522.5 152.5,524.515625 152.5,527 C152.5,529.484375 154.515625,531.5 157,531.5 C159.484375,531.5 161.5,529.484375 161.5,527 Z M161.5,527" style="fill:none;stroke:rgb(85,142,213)" clip-path="url(#clip251)" />
<clipPath id="clip252"><path d="M151,521 L164,521 L164,534 L151,534 L151,521 Z" /></clipPath>
<path d="M155,527 L159,527" style="fill:none;stroke:rgb(150,160,200)" clip-path="url(#clip252)" />
<clipPath id="clip253"><path d="M74,510 L145,510 L145,544 L74,544 L74,510 Z" /></clipPath>
<path d="M77,541 L141,541 Z M77,541" style="fill:none;stroke:rgb(85,142,213);stroke-width:3" clip-path="url(#clip253)" />
<text x="89" y="529" style="font:10px Open Sans">Inques</text>
<clipPath id="clip254"><path d="M15,544 L219,544 L219,576 L15,576 Z M158,546 L158,573 L216,573 L216,546 Z M158,546 Z M158,546" /></clipPath>
<path d="M145,574 C142.5546875,574 138.890625,574 134,574" style="fill:none;stroke:rgb(85,142,213)" clip-path="url(#clip254)" />
<clipPath id="clip255"><path d="M14,543 L220,543 L220,577 L14,577 L14,543 Z" /></clipPath>
<path d="M158,574 L145,574" style="fill:none;stroke:rgb(85,142,213)" clip-path="url(#clip255)" />
<clipPath id="clip256"><path d="M155,543 L220,543 L220,577 L155,577 L155,543 Z" /></clipPath>
<path d="M158,574 L216,574 Z M158,574" style="fill:none;stroke:rgb(85,142,213);stroke-width:3" clip-path="url(#clip256)" />
<text x="170" y="562" style="font:10px Open Sans">Maies</text>
<clipPath id="clip257"><path d="M144,554 L157,554 L157,567 L144,567 L144,554 Z" /></clipPath>
<path d="M154.5,560 C154.5,557.515625 152.484375,555.5 150,555.5 C147.515625,555.5 145.5,557.515625 145.5,560 C145.5,562.484375 147.515625,564.5 150,564.5 C152.484375,564.5 154.5,562.484375 154.5,560 Z M154.5,560" style="fill:rgb(250,250,250);stroke:none" clip-path="url(#clip257)" />
<clipPath id="clip258"><path d="M144,554 L157,554 L157,567 L144,567 L144,554 Z" /></clipPath>
<path d="M154.5,560 C154.5,557.515625 152.484375,555.5 150,555.5 C147.515625,555.5 145.5,557.515625 145.5,560 C145.5,562.484375 147.515625,564.5 150,564.5 C152.484375,564.5 154.5,562.484375 154.5,560 Z M154.5,560" style="fill:none;stroke:rgb(85,142,213)" clip-path="url(#clip258)" />
<clipPath id="clip259"><path d="M144,554 L157,554 L157,567 L144,567 L144,554 Z" /></clipPath>
<path d="M148,560 L152,560" style="fill:none;stroke:rgb(150,160,200)" clip-path="url(#clip259)" />
<clipPath id="clip260"><path d="M14,543 L138,543 L138,577 L14,577 L14,543 Z" /></clipPath>
<path d="M17,574 L134,574 Z M17,574" style="fill:none;stroke:rgb(85,142,213);stroke-width:3" clip-path="url(#clip260)" />
<text x="29" y="562" style="font:10px Open Sans">Amèrica Central</text>
<clipPath id="clip261"><path d="M126,577 L391,577 L391,661 L126,661 Z M301,605 L301,632 L388,632 L388,605 Z M301,605 Z M301,605" /></clipPath>
<path d="M288,633 C285.5546875,615.6679688 281.890625,607 277,607" style="fill:none;stroke:rgb(85,142,213)" clip-path="url(#clip261)" />
<clipPath id="clip262"><path d="M126,577 L391,577 L391,661 L126,661 Z M301,605 L301,632 L388,632 L388,605 Z M301,605 Z M301,605" /></clipPath>
<path d="M288,633 C285.5546875,650.3320313 281.890625,659 277,659" style="fill:none;stroke:rgb(85,142,213)" clip-path="url(#clip262)" />
<clipPath id="clip263"><path d="M125,576 L392,576 L392,662 L125,662 L125,576 Z" /></clipPath>
<path d="M301,633 L288,633" style="fill:none;stroke:rgb(85,142,213)" clip-path="url(#clip263)" />
<clipPath id="clip264"><path d="M298,602 L392,602 L392,636 L298,636 L298,602 Z" /></clipPath>
<path d="M301,633 L388,633 Z M301,633" style="fill:none;stroke:rgb(85,142,213);stroke-width:3" clip-path="url(#clip264)" />
<text x="313" y="621" style="font:10px Open Sans">Tecnologia</text>
<clipPath id="clip265"><path d="M287,613 L300,613 L300,626 L287,626 L287,613 Z" /></clipPath>
<path d="M297.5,619 C297.5,616.515625 295.484375,614.5 293,614.5 C290.515625,614.5 288.5,616.515625 288.5,619 C288.5,621.484375 290.515625,623.5 293,623.5 C295.484375,623.5 297.5,621.484375 297.5,619 Z M297.5,619" style="fill:rgb(250,250,250);stroke:none" clip-path="url(#clip265)" />
<clipPath id="clip266"><path d="M287,613 L300,613 L300,626 L287,626 L287,613 Z" /></clipPath>
<path d="M297.5,619 C297.5,616.515625 295.484375,614.5 293,614.5 C290.515625,614.5 288.5,616.515625 288.5,619 C288.5,621.484375 290.515625,623.5 293,623.5 C295.484375,623.5 297.5,621.484375 297.5,619 Z M297.5,619" style="fill:none;stroke:rgb(85,142,213)" clip-path="url(#clip266)" />
<clipPath id="clip267"><path d="M287,613 L300,613 L300,626 L287,626 L287,613 Z" /></clipPath>
<path d="M291,619 L295,619" style="fill:none;stroke:rgb(150,160,200)" clip-path="url(#clip267)" />
<clipPath id="clip268"><path d="M125,576 L281,576 L281,610 L125,610 L125,576 Z" /></clipPath>
<path d="M128,607 L277,607 Z M128,607" style="fill:none;stroke:rgb(85,142,213);stroke-width:3" clip-path="url(#clip268)" />
<text x="140" y="595" style="font:10px Open Sans">Instruments de fusta</text>
<clipPath id="clip269"><path d="M150,609 L281,609 L281,662 L150,662 L150,609 Z" /></clipPath>
<path d="M153,659 L277,659 Z M153,659" style="fill:none;stroke:rgb(85,142,213);stroke-width:3" clip-path="url(#clip269)" />
<text x="165" y="628" style="font:10px Open Sans">No coneixien</text>
<text x="165" y="647" style="font:10px Open Sans">el ferro ni la roda</text>
<clipPath id="clip270"><path d="M156,662 L391,662 L391,760 L156,760 Z M280,697 L280,724 L388,724 L388,697 Z M280,697 Z M280,697" /></clipPath>
<path d="M267,725 C264.5546875,703 260.890625,692 256,692" style="fill:none;stroke:rgb(85,142,213)" clip-path="url(#clip270)" />
<clipPath id="clip271"><path d="M156,662 L391,662 L391,760 L156,760 Z M280,697 L280,724 L388,724 L388,697 Z M280,697 Z M280,697" /></clipPath>
<path d="M267,725 C264.5546875,725 260.890625,725 256,725" style="fill:none;stroke:rgb(85,142,213)" clip-path="url(#clip271)" />
<clipPath id="clip272"><path d="M156,662 L391,662 L391,760 L156,760 Z M280,697 L280,724 L388,724 L388,697 Z M280,697 Z M280,697" /></clipPath>
<path d="M267,725 C264.5546875,747 260.890625,758 256,758" style="fill:none;stroke:rgb(85,142,213)" clip-path="url(#clip272)" />
<clipPath id="clip273"><path d="M155,661 L392,661 L392,761 L155,761 L155,661 Z" /></clipPath>
<path d="M280,725 L267,725" style="fill:none;stroke:rgb(85,142,213)" clip-path="url(#clip273)" />
<clipPath id="clip274"><path d="M277,694 L392,694 L392,728 L277,728 L277,694 Z" /></clipPath>
<path d="M280,725 L388,725 Z M280,725" style="fill:none;stroke:rgb(85,142,213);stroke-width:3" clip-path="url(#clip274)" />
<text x="292" y="712" style="font:10px Open Sans">Forma de vida</text>
<clipPath id="clip275"><path d="M266,705 L279,705 L279,718 L266,718 L266,705 Z" /></clipPath>
<path d="M276.5,711 C276.5,708.515625 274.484375,706.5 272,706.5 C269.515625,706.5 267.5,708.515625 267.5,711 C267.5,713.484375 269.515625,715.5 272,715.5 C274.484375,715.5 276.5,713.484375 276.5,711 Z M276.5,711" style="fill:rgb(250,250,250);stroke:none" clip-path="url(#clip275)" />
<clipPath id="clip276"><path d="M266,705 L279,705 L279,718 L266,718 L266,705 Z" /></clipPath>
<path d="M276.5,711 C276.5,708.515625 274.484375,706.5 272,706.5 C269.515625,706.5 267.5,708.515625 267.5,711 C267.5,713.484375 269.515625,715.5 272,715.5 C274.484375,715.5 276.5,713.484375 276.5,711 Z M276.5,711" style="fill:none;stroke:rgb(85,142,213)" clip-path="url(#clip276)" />
<clipPath id="clip277"><path d="M266,705 L279,705 L279,718 L266,718 L266,705 Z" /></clipPath>
<path d="M270,711 L274,711" style="fill:none;stroke:rgb(150,160,200)" clip-path="url(#clip277)" />
<clipPath id="clip278"><path d="M166,661 L260,661 L260,695 L166,695 L166,661 Z" /></clipPath>
<path d="M169,692 L256,692 Z M169,692" style="fill:none;stroke:rgb(85,142,213);stroke-width:3" clip-path="url(#clip278)" />
<text x="181" y="679" style="font:10px Open Sans">Llauradors</text>
<clipPath id="clip279"><path d="M178,694 L260,694 L260,728 L178,728 L178,694 Z" /></clipPath>
<path d="M181,725 L256,725 Z M181,725" style="fill:none;stroke:rgb(85,142,213);stroke-width:3" clip-path="url(#clip279)" />
<text x="193" y="712" style="font:10px Open Sans">Artesans</text>
<clipPath id="clip280"><path d="M155,727 L260,727 L260,761 L155,761 L155,727 Z" /></clipPath>
<path d="M158,758 L256,758 Z M158,758" style="fill:none;stroke:rgb(85,142,213);stroke-width:3" clip-path="url(#clip280)" />
<text x="170" y="745" style="font:10px Open Sans">Comerciants</text>
<clipPath id="clip281"><path d="M187,790 L790,790 L790,1011 L187,1011 Z M656,893 C653.2382813,893 651,895.2382813 651,898 L651,931 C651,933.7617188 653.2382813,936 656,936 L783,936 C785.7617188,936 788,933.7617188 788,931 L788,898 C788,895.2382813 785.7617188,893 783,893 Z M656,893 Z M656,893" /></clipPath>
<path d="M638,914.9101563 C635.7773438,914.96875 632.4453125,915 628,915" style="fill:none;stroke:rgb(85,142,213)" clip-path="url(#clip281)" />
<clipPath id="clip282"><path d="M186,789 L791,789 L791,1012 L186,1012 L186,789 Z" /></clipPath>
<path d="M651,914.84375 L638,914.9101563" style="fill:none;stroke:rgb(85,142,213)" clip-path="url(#clip282)" />
<clipPath id="clip283"><path d="M649,891 L791,891 L791,939 L649,939 L649,891 Z" /></clipPath>
<path d="M656,893 C653.2382813,893 651,895.2382813 651,898 L651,931 C651,933.7617188 653.2382813,936 656,936 L783,936 C785.7617188,936 788,933.7617188 788,931 L788,898 C788,895.2382813 785.7617188,893 783,893 Z M656,893" style="fill:rgb(220,230,242);stroke:none" clip-path="url(#clip283)" />
<clipPath id="clip284"><path d="M649,891 L791,891 L791,939 L649,939 L649,891 Z" /></clipPath>
<path d="M656,893 C653.2382813,893 651,895.2382813 651,898 L651,931 C651,933.7617188 653.2382813,936 656,936 L783,936 C785.7617188,936 788,933.7617188 788,931 L788,898 C788,895.2382813 785.7617188,893 783,893 Z M656,893" style="fill:none;stroke:rgb(85,142,213);stroke-width:2" clip-path="url(#clip284)" />
<text x="666" y="916" style="font:13px Open Sans">Renaixement</text>
<clipPath id="clip285"><path d="M638,909 L651,909 L651,922 L638,922 L638,909 Z" /></clipPath>
<path d="M648.5,915 C648.5,912.515625 646.484375,910.5 644,910.5 C641.515625,910.5 639.5,912.515625 639.5,915 C639.5,917.484375 641.515625,919.5 644,919.5 C646.484375,919.5 648.5,917.484375 648.5,915 Z M648.5,915" style="fill:rgb(250,250,250);stroke:none" clip-path="url(#clip285)" />
<clipPath id="clip286"><path d="M638,909 L651,909 L651,922 L638,922 L638,909 Z" /></clipPath>
<path d="M648.5,915 C648.5,912.515625 646.484375,910.5 644,910.5 C641.515625,910.5 639.5,912.515625 639.5,915 C639.5,917.484375 641.515625,919.5 644,919.5 C646.484375,919.5 648.5,917.484375 648.5,915 Z M648.5,915" style="fill:none;stroke:rgb(85,142,213)" clip-path="url(#clip286)" />
<clipPath id="clip287"><path d="M638,909 L651,909 L651,922 L638,922 L638,909 Z" /></clipPath>
<path d="M642,915 L646,915" style="fill:none;stroke:rgb(150,160,200)" clip-path="url(#clip287)" />
<clipPath id="clip288"><path d="M187,790 L631,790 L631,1011 L187,1011 Z M543,887 L543,914 L628,914 L628,887 Z M543,887 Z M543,887" /></clipPath>
<path d="M530,915 C527.5546875,864.3320313 523.890625,839 519,839" style="fill:none;stroke:rgb(85,142,213)" clip-path="url(#clip288)" />
<clipPath id="clip289"><path d="M187,790 L631,790 L631,1011 L187,1011 Z M543,887 L543,914 L628,914 L628,887 Z M543,887 Z M543,887" /></clipPath>
<path d="M530,915 C527.5546875,916.3320313 523.890625,917 519,917" style="fill:none;stroke:rgb(85,142,213)" clip-path="url(#clip289)" />
<clipPath id="clip290"><path d="M187,790 L631,790 L631,1011 L187,1011 Z M543,887 L543,914 L628,914 L628,887 Z M543,887 Z M543,887" /></clipPath>
<path d="M530,915 C527.5546875,966.3320313 523.890625,992 519,992" style="fill:none;stroke:rgb(85,142,213)" clip-path="url(#clip290)" />
<clipPath id="clip291"><path d="M186,789 L632,789 L632,1012 L186,1012 L186,789 Z" /></clipPath>
<path d="M543,915 L530,915" style="fill:none;stroke:rgb(85,142,213)" clip-path="url(#clip291)" />
<clipPath id="clip292"><path d="M540,884 L632,884 L632,918 L540,918 L540,884 Z" /></clipPath>
<path d="M543,915 L628,915 Z M543,915" style="fill:none;stroke:rgb(85,142,213);stroke-width:3" clip-path="url(#clip292)" />
<text x="555" y="902" style="font:10px Open Sans">En general</text>
<clipPath id="clip293"><path d="M529,895 L542,895 L542,908 L529,908 L529,895 Z" /></clipPath>
<path d="M539.5,901 C539.5,898.515625 537.484375,896.5 535,896.5 C532.515625,896.5 530.5,898.515625 530.5,901 C530.5,903.484375 532.515625,905.5 535,905.5 C537.484375,905.5 539.5,903.484375 539.5,901 Z M539.5,901" style="fill:rgb(250,250,250);stroke:none" clip-path="url(#clip293)" />
<clipPath id="clip294"><path d="M529,895 L542,895 L542,908 L529,908 L529,895 Z" /></clipPath>
<path d="M539.5,901 C539.5,898.515625 537.484375,896.5 535,896.5 C532.515625,896.5 530.5,898.515625 530.5,901 C530.5,903.484375 532.515625,905.5 535,905.5 C537.484375,905.5 539.5,903.484375 539.5,901 Z M539.5,901" style="fill:none;stroke:rgb(85,142,213)" clip-path="url(#clip294)" />
<clipPath id="clip295"><path d="M529,895 L542,895 L542,908 L529,908 L529,895 Z" /></clipPath>
<path d="M533,901 L537,901" style="fill:none;stroke:rgb(150,160,200)" clip-path="url(#clip295)" />
<clipPath id="clip296"><path d="M357,789 L523,789 L523,842 L357,842 L357,789 Z" /></clipPath>
<path d="M360,839 L519,839 Z M360,839" style="fill:none;stroke:rgb(85,142,213);stroke-width:3" clip-path="url(#clip296)" />
<text x="372" y="807" style="font:10px Open Sans">S'inspiraven en les</text>
<text x="372" y="826" style="font:10px Open Sans">antigues Grècia i Roma</text>
<clipPath id="clip297"><path d="M187,842 L522,842 L522,945 L187,945 Z M421,889 L421,916 L519,916 L519,889 Z M421,889 Z M421,889" /></clipPath>
<path d="M408,917 C405.5546875,899.6679688 401.890625,891 397,891" style="fill:none;stroke:rgb(85,142,213)" clip-path="url(#clip297)" />
<clipPath id="clip298"><path d="M187,842 L522,842 L522,945 L187,945 Z M421,889 L421,916 L519,916 L519,889 Z M421,889 Z M421,889" /></clipPath>
<path d="M408,917 C405.5546875,934.3320313 401.890625,943 397,943" style="fill:none;stroke:rgb(85,142,213)" clip-path="url(#clip298)" />
<clipPath id="clip299"><path d="M186,841 L523,841 L523,946 L186,946 L186,841 Z" /></clipPath>
<path d="M421,917 L408,917" style="fill:none;stroke:rgb(85,142,213)" clip-path="url(#clip299)" />
<clipPath id="clip300"><path d="M418,886 L523,886 L523,920 L418,920 L418,886 Z" /></clipPath>
<path d="M421,917 L519,917 Z M421,917" style="fill:none;stroke:rgb(85,142,213);stroke-width:3" clip-path="url(#clip300)" />
<text x="433" y="904" style="font:10px Open Sans">Arquitectura</text>
<clipPath id="clip301"><path d="M407,897 L420,897 L420,910 L407,910 L407,897 Z" /></clipPath>
<path d="M417.5,903 C417.5,900.515625 415.484375,898.5 413,898.5 C410.515625,898.5 408.5,900.515625 408.5,903 C408.5,905.484375 410.515625,907.5 413,907.5 C415.484375,907.5 417.5,905.484375 417.5,903 Z M417.5,903" style="fill:rgb(250,250,250);stroke:none" clip-path="url(#clip301)" />
<clipPath id="clip302"><path d="M407,897 L420,897 L420,910 L407,910 L407,897 Z" /></clipPath>
<path d="M417.5,903 C417.5,900.515625 415.484375,898.5 413,898.5 C410.515625,898.5 408.5,900.515625 408.5,903 C408.5,905.484375 410.515625,907.5 413,907.5 C415.484375,907.5 417.5,905.484375 417.5,903 Z M417.5,903" style="fill:none;stroke:rgb(85,142,213)" clip-path="url(#clip302)" />
<clipPath id="clip303"><path d="M407,897 L420,897 L420,910 L407,910 L407,897 Z" /></clipPath>
<path d="M411,903 L415,903" style="fill:none;stroke:rgb(150,160,200)" clip-path="url(#clip303)" />
<clipPath id="clip304"><path d="M263,841 L401,841 L401,894 L263,894 L263,841 Z" /></clipPath>
<path d="M266,891 L397,891 Z M266,891" style="fill:none;stroke:rgb(85,142,213);stroke-width:3" clip-path="url(#clip304)" />
<text x="278" y="859" style="font:10px Open Sans">Proporció,</text>
<text x="278" y="878" style="font:10px Open Sans">harmonia i bellesa</text>
<clipPath id="clip305"><path d="M186,893 L401,893 L401,946 L186,946 L186,893 Z" /></clipPath>
<path d="M189,943 L397,943 Z M189,943" style="fill:none;stroke:rgb(85,142,213);stroke-width:3" clip-path="url(#clip305)" />
<text x="201" y="911" style="font:10px Open Sans">Columnes clàssiques, frontons,</text>
<text x="201" y="930" style="font:10px Open Sans">arcs de mig punt i cúpules</text>
<clipPath id="clip306"><path d="M300,946 L522,946 L522,1011 L300,1011 Z M452,964 L452,991 L519,991 L519,964 Z M452,964 Z M452,964" /></clipPath>
<path d="M439,992 C436.5546875,981.3320313 432.890625,976 428,976" style="fill:none;stroke:rgb(85,142,213)" clip-path="url(#clip306)" />
<clipPath id="clip307"><path d="M300,946 L522,946 L522,1011 L300,1011 Z M452,964 L452,991 L519,991 L519,964 Z M452,964 Z M452,964" /></clipPath>
<path d="M439,992 C436.5546875,1003.3320313 432.890625,1009 428,1009" style="fill:none;stroke:rgb(85,142,213)" clip-path="url(#clip307)" />
<clipPath id="clip308"><path d="M299,945 L523,945 L523,1012 L299,1012 L299,945 Z" /></clipPath>
<path d="M452,992 L439,992" style="fill:none;stroke:rgb(85,142,213)" clip-path="url(#clip308)" />
<clipPath id="clip309"><path d="M449,961 L523,961 L523,995 L449,995 L449,961 Z" /></clipPath>
<path d="M452,992 L519,992 Z M452,992" style="fill:none;stroke:rgb(85,142,213);stroke-width:3" clip-path="url(#clip309)" />
<text x="464" y="979" style="font:10px Open Sans">Pintura</text>
<clipPath id="clip310"><path d="M438,972 L451,972 L451,985 L438,985 L438,972 Z" /></clipPath>
<path d="M448.5,978 C448.5,975.515625 446.484375,973.5 444,973.5 C441.515625,973.5 439.5,975.515625 439.5,978 C439.5,980.484375 441.515625,982.5 444,982.5 C446.484375,982.5 448.5,980.484375 448.5,978 Z M448.5,978" style="fill:rgb(250,250,250);stroke:none" clip-path="url(#clip310)" />
<clipPath id="clip311"><path d="M438,972 L451,972 L451,985 L438,985 L438,972 Z" /></clipPath>
<path d="M448.5,978 C448.5,975.515625 446.484375,973.5 444,973.5 C441.515625,973.5 439.5,975.515625 439.5,978 C439.5,980.484375 441.515625,982.5 444,982.5 C446.484375,982.5 448.5,980.484375 448.5,978 Z M448.5,978" style="fill:none;stroke:rgb(85,142,213)" clip-path="url(#clip311)" />
<clipPath id="clip312"><path d="M438,972 L451,972 L451,985 L438,985 L438,972 Z" /></clipPath>
<path d="M442,978 L446,978" style="fill:none;stroke:rgb(150,160,200)" clip-path="url(#clip312)" />
<clipPath id="clip313"><path d="M299,945 L432,945 L432,979 L299,979 L299,945 Z" /></clipPath>
<path d="M302,976 L428,976 Z M302,976" style="fill:none;stroke:rgb(85,142,213);stroke-width:3" clip-path="url(#clip313)" />
<text x="314" y="963" style="font:10px Open Sans">Mitologia clàssica</text>
<clipPath id="clip314"><path d="M304,978 L432,978 L432,1012 L304,1012 L304,978 Z" /></clipPath>
<path d="M307,1009 L428,1009 Z M307,1009" style="fill:none;stroke:rgb(85,142,213);stroke-width:3" clip-path="url(#clip314)" />
<text x="319" y="996" style="font:10px Open Sans">Temes religiosos</text>
</svg>
